STARTFONT 2.1
FONT -Monotype-Arial Narrow-Regular-R-Normal--50-360-100-100-P-212-iso8859-9
SIZE 36 100 100
FONTBOUNDINGBOX 54 58 -11 -11

STARTPROPERTIES 24
FOUNDRY "Monotype"
FAMILY_NAME "Arial Narrow"
WEIGHT_NAME "Regular"
SLANT "R"
SETWIDTH_NAME "Normal"
ADD_STYLE_NAME ""
PIXEL_SIZE 50
POINT_SIZE 360
RESOLUTION_X 100
RESOLUTION_Y 100
SPACING "P"
AVERAGE_WIDTH 212
CHARSET_REGISTRY "iso8859"
CHARSET_ENCODING "9"
FACE_NAME "Arial Narrow ISO Latin5"
_DEC_DEVICE_FONTNAMES "PS=arialnarrow-lat5"
COPYRIGHT "Copyright (c) 1993 Monotype Typography Ltd."
CAP_HEIGHT 43
X_HEIGHT 31
WEIGHT 10
QUAD_WIDTH 25
DEFAULT_CHAR 160
FONT_DESCENT 13
FONT_ASCENT 48
ENDPROPERTIES

CHARS 191

STARTCHAR space
ENCODING 32
SWIDTH 228 0
DWIDTH 11 0
BBX 0 0 0 0
BITMAP
ENDCHAR

STARTCHAR exclam
ENCODING 33
SWIDTH 228 0
DWIDTH 11 0
BBX 8 36 2 0
BITMAP
3C
3C
3C
3C
3C
3C
3C
3C
3C
3C
3C
3C
3C
3C
3C
3C
3C
3C
3C
3C
1C
1C
1C
18
18
18
18
00
00
00
00
3C
3C
3C
3C
3C
ENDCHAR

STARTCHAR quotedbl
ENCODING 34
SWIDTH 291 0
DWIDTH 15 0
BBX 15 13 0 23
BITMAP
3C78
3C78
3C78
3C78
3C78
3C78
3C78
3C78
3C78
3C78
1C30
1830
1830
ENDCHAR

STARTCHAR numbersign
ENCODING 35
SWIDTH 456 0
DWIDTH 23 0
BBX 25 36 -1 0
BITMAP
00701C00
00703800
00703800
00703800
00703800
00E03800
00E03800
00E07000
00E07000
00E07000
3FFFFE00
3FFFFE00
3FFFFE00
3FFFFE00
01C0E000
01C0E000
01C0E000
0380E000
0380E000
0381C000
0381C000
0381C000
3FFFFE00
3FFFFE00
3FFFFE00
3FFFFE00
07038000
07038000
06038000
0E038000
0E030000
0E070000
0E070000
0E070000
0C070000
1C070000
ENDCHAR

STARTCHAR dollar
ENCODING 36
SWIDTH 456 0
DWIDTH 23 0
BBX 22 44 0 -5
BITMAP
003000
003000
00FC00
03FF00
07FF80
0FFFC0
0F33E0
1E31E0
1C30F0
3C30F0
3C30F0
3C3080
3C3000
3C3000
3C3000
1E3000
1F3000
1FB000
0FF000
07FE00
03FF80
00FFC0
003FE0
0033F0
0031F0
0030F8
003078
003078
003078
383078
3C3078
3C3078
3C3078
3E30F0
1E31F0
1F33E0
0FFFE0
07FFC0
03FF00
007C00
003000
003000
003000
003000
ENDCHAR

STARTCHAR percent
ENCODING 37
SWIDTH 729 0
DWIDTH 36 0
BBX 35 38 1 -1
BITMAP
03C000E000
0FF001C000
0FF001C000
1E78038000
1C38038000
381C030000
381C070000
381C070000
381C0E0000
381C0E0000
381C0C0000
381C1C0000
381C1C0000
381C380000
1C38380000
1E38700000
0FF0700000
0FF0600000
07C0E00000
0000E0FC00
0001C1FE00
0001C3FF00
000383C700
0003838700
0003070380
0007070380
0007070380
000E070380
000E070380
001C070380
001C070380
001C070380
0038078380
0038038700
007003CF00
007001FE00
00E001FE00
00E0007800
ENDCHAR

STARTCHAR ampersand
ENCODING 38
SWIDTH 547 0
DWIDTH 27 0
BBX 27 38 1 -1
BITMAP
003C0000
00FF0000
01FF8000
01FFC000
03C3C000
0381E000
0781E000
0781E000
0781E000
0781E000
0781E000
07C3C000
03E7C000
03EF8000
01FF0000
00FE0000
00FC0000
03FC0000
07FC0000
0FFE0000
1F1F0800
1E1F0F00
3E0F8E00
3C07DE00
7807DE00
7803FE00
7801FC00
7801FC00
7800F800
78007800
3C00FC00
3C01FE00
3E03FF00
1F07DF80
1FFFCFC0
0FFF8780
03FE0300
00F80300
ENDCHAR

STARTCHAR quoteright
ENCODING 39
SWIDTH 182 0
DWIDTH 9 0
BBX 7 12 1 24
BITMAP
3C
3C
3C
3C
3C
0C
0C
0C
18
18
30
20
ENDCHAR

STARTCHAR parenleft
ENCODING 40
SWIDTH 273 0
DWIDTH 14 0
BBX 12 48 1 -11
BITMAP
00E0
01C0
01C0
0380
0380
0700
0700
0700
0E00
0E00
1E00
1E00
1C00
1C00
3C00
3C00
3800
3800
3800
7800
7800
7800
7800
7800
7800
7800
7800
7800
7800
3800
3800
3C00
3C00
3C00
1C00
1C00
1E00
1E00
0E00
0E00
0F00
0700
0780
0380
0380
01C0
01C0
00E0
ENDCHAR

STARTCHAR parenright
ENCODING 41
SWIDTH 273 0
DWIDTH 14 0
BBX 12 48 0 -11
BITMAP
7000
3800
3800
1C00
1C00
0E00
0E00
0F00
0700
0700
0780
0380
0380
03C0
03C0
03C0
01C0
01C0
01E0
01E0
01E0
01E0
01E0
01E0
01E0
01E0
01E0
01E0
01E0
01E0
01C0
01C0
03C0
03C0
03C0
0380
0380
0780
0700
0700
0F00
0E00
0E00
1C00
1C00
3800
3800
7000
ENDCHAR

STARTCHAR asterisk
ENCODING 42
SWIDTH 319 0
DWIDTH 16 0
BBX 16 15 0 21
BITMAP
0180
0180
0180
0180
318C
3DBC
3FFC
3FFC
03C0
03E0
07E0
0E70
1E78
1C38
0430
ENDCHAR

STARTCHAR plus
ENCODING 43
SWIDTH 479 0
DWIDTH 24 0
BBX 23 24 0 6
BITMAP
003800
003800
003800
003800
003800
003800
003800
003800
003800
003800
3FFFF8
3FFFF8
3FFFF8
3FFFF8
003800
003800
003800
003800
003800
003800
003800
003800
003800
003800
ENDCHAR

STARTCHAR comma
ENCODING 44
SWIDTH 228 0
DWIDTH 11 0
BBX 8 12 2 -7
BITMAP
3C
3C
3C
3C
3C
0C
0C
0C
1C
18
38
20
ENDCHAR

STARTCHAR minus
ENCODING 45
SWIDTH 479 0
DWIDTH 24 0
BBX 22 4 1 16
BITMAP
7FFFF8
7FFFF8
7FFFF8
7FFFF8
ENDCHAR

STARTCHAR period
ENCODING 46
SWIDTH 228 0
DWIDTH 11 0
BBX 8 5 2 0
BITMAP
3C
3C
3C
3C
3C
ENDCHAR

STARTCHAR slash
ENCODING 47
SWIDTH 228 0
DWIDTH 11 0
BBX 14 37 -1 -1
BITMAP
0070
0070
0070
0070
0060
00E0
00E0
00E0
00C0
01C0
01C0
01C0
01C0
0380
0380
0380
0380
0300
0700
0700
0700
0600
0E00
0E00
0E00
0E00
1C00
1C00
1C00
1C00
1800
3800
3800
3800
3000
7000
7000
ENDCHAR

STARTCHAR zero
ENCODING 48
SWIDTH 456 0
DWIDTH 23 0
BBX 21 37 1 -1
BITMAP
00F800
03FE00
07FF00
0FFF80
0F0780
1E03C0
1E03C0
1C01E0
3C01E0
3C00E0
3800E0
3800F0
3800F0
7800F0
7800F0
7800F0
7800F0
7800F0
7800F0
7800F0
7800F0
7800F0
7800F0
7800F0
7800F0
3800E0
3800E0
3C01E0
3C01E0
3C01E0
1E03C0
1E03C0
0F0780
0FFF80
07FF00
03FE00
00F800
ENDCHAR

STARTCHAR one
ENCODING 49
SWIDTH 456 0
DWIDTH 23 0
BBX 13 36 4 0
BITMAP
0070
0070
00F0
00F0
01F0
03F0
07F0
1FF0
3FF0
7EF0
7CF0
70F0
60F0
00F0
00F0
00F0
00F0
00F0
00F0
00F0
00F0
00F0
00F0
00F0
00F0
00F0
00F0
00F0
00F0
00F0
00F0
00F0
00F0
00F0
00F0
00F0
ENDCHAR

STARTCHAR two
ENCODING 50
SWIDTH 456 0
DWIDTH 23 0
BBX 22 36 0 0
BITMAP
007C00
01FF80
07FFC0
07FFE0
0F83F0
1F00F0
1E00F0
1C0078
1C0078
3C0078
3C0078
000078
000078
0000F0
0000F0
0001F0
0001E0
0003E0
0007C0
000F80
001F00
003F00
007E00
00FC00
01F800
03F000
03E000
07C000
0F8000
0F0000
1E0000
1E0000
3FFFF8
3FFFF8
3FFFF8
3FFFF8
ENDCHAR

STARTCHAR three
ENCODING 51
SWIDTH 456 0
DWIDTH 23 0
BBX 23 37 0 -1
BITMAP
007C00
01FF00
03FF80
07FFC0
0F83E0
0F01E0
1E01E0
1E00F0
1C00F0
3C00F0
0000F0
0000F0
0000F0
0001E0
0003E0
000FC0
003F80
007F80
007FC0
0003E0
0001F0
0000F0
0000F8
000078
000078
000078
080078
3C0078
3C0078
3C00F0
3E00F0
1E01E0
1F83E0
0FFFC0
07FF80
01FF00
007C00
ENDCHAR

STARTCHAR four
ENCODING 52
SWIDTH 456 0
DWIDTH 23 0
BBX 23 36 -1 0
BITMAP
0001C0
0003C0
0007C0
0007C0
000FC0
000FC0
001FC0
001FC0
003BC0
007BC0
0073C0
00F3C0
00E3C0
01C3C0
03C3C0
0383C0
0783C0
0703C0
0F03C0
0E03C0
1C03C0
3C03C0
3803C0
7FFFFC
7FFFFC
7FFFFC
7FFFFC
0003C0
0003C0
0003C0
0003C0
0003C0
0003C0
0003C0
0003C0
0003C0
ENDCHAR

STARTCHAR five
ENCODING 53
SWIDTH 456 0
DWIDTH 23 0
BBX 22 36 0 -1
BITMAP
07FFF0
07FFF0
07FFF0
0FFFF0
0F0000
0F0000
0E0000
0E0000
0E0000
1E0000
1E0000
1E3C00
1DFF00
1FFF80
1FFFC0
1F07E0
3E01F0
3C00F0
0000F0
000078
000078
000078
000078
000078
000078
180078
3C0078
3C00F0
3C00F0
3E01F0
1E01E0
1F87E0
0FFFC0
07FF80
03FF00
007800
ENDCHAR

STARTCHAR six
ENCODING 54
SWIDTH 456 0
DWIDTH 23 0
BBX 22 37 0 -1
BITMAP
003E00
00FF80
01FFC0
03FFC0
07C3E0
0F81E0
0F00F0
0E00F0
1E0070
1E0000
1C0000
1C0000
3C0000
3C3E00
3CFF80
3DFFC0
3FFFE0
3F83E0
3F01F0
3E00F0
3E00F0
3C0078
3C0078
3C0078
3C0078
3C0078
3C0078
1C0078
1E0070
1E00F0
0F00F0
0F01E0
07C3E0
07FFC0
03FF80
00FF00
003C00
ENDCHAR

STARTCHAR seven
ENCODING 55
SWIDTH 456 0
DWIDTH 23 0
BBX 22 35 1 0
BITMAP
7FFFF0
7FFFF0
7FFFF0
7FFFF0
0001E0
0003C0
0003C0
000780
000780
000F00
000F00
001E00
001E00
003C00
003C00
007800
007800
007800
00F000
00F000
00F000
01E000
01E000
01E000
01C000
03C000
03C000
03C000
03C000
03C000
038000
078000
078000
078000
078000
ENDCHAR

STARTCHAR eight
ENCODING 56
SWIDTH 456 0
DWIDTH 23 0
BBX 22 37 1 -1
BITMAP
00F800
03FE00
07FF00
0FFF80
1F07C0
1E03C0
1C01E0
3C01E0
3C01E0
3C01E0
3C01E0
3C01E0
1E01E0
1E03C0
0F0780
07FF80
03FE00
07FF00
0FFF80
1F07C0
3E03E0
3C01E0
3800F0
7800F0
7800F0
7800F0
7800F0
7800F0
7800F0
3800E0
3C01E0
3E03E0
1F07C0
0FFF80
07FF00
03FE00
00F800
ENDCHAR

STARTCHAR nine
ENCODING 57
SWIDTH 456 0
DWIDTH 23 0
BBX 22 37 1 -1
BITMAP
00F800
03FC00
07FF00
0FFF80
1F0780
1E03C0
3C01C0
3C01E0
3800E0
7800E0
7800F0
7800F0
7800F0
7800F0
7800F0
7800F0
3C01F0
3C01F0
3E03F0
1F07F0
0FFFF0
0FFEF0
03FCF0
01F0F0
0000F0
0000E0
0000E0
0000E0
3801E0
3C01C0
3C03C0
1E03C0
1F0F80
0FFF00
0FFE00
07FC00
00F000
ENDCHAR

STARTCHAR colon
ENCODING 58
SWIDTH 228 0
DWIDTH 11 0
BBX 8 26 2 0
BITMAP
3C
3C
3C
3C
3C
00
00
00
00
00
00
00
00
00
00
00
00
00
00
00
00
3C
3C
3C
3C
3C
ENDCHAR

STARTCHAR semicolon
ENCODING 59
SWIDTH 228 0
DWIDTH 11 0
BBX 8 33 2 -7
BITMAP
3C
3C
3C
3C
3C
00
00
00
00
00
00
00
00
00
00
00
00
00
00
00
00
3C
3C
3C
3C
3C
0C
0C
0C
1C
18
38
20
ENDCHAR

STARTCHAR less
ENCODING 60
SWIDTH 479 0
DWIDTH 24 0
BBX 22 24 1 6
BITMAP
000008
000038
0000F8
0003F8
0007F8
001FE0
007F80
01FE00
07F800
1FE000
7F8000
7E0000
7C0000
7F0000
3FC000
0FF000
07FC00
01FF00
007FC0
001FF0
0007F8
0001F8
000078
000018
ENDCHAR

STARTCHAR equal
ENCODING 61
SWIDTH 479 0
DWIDTH 24 0
BBX 22 15 1 10
BITMAP
7FFFF8
7FFFF8
7FFFF8
7FFFF8
000000
000000
000000
000000
000000
000000
000000
7FFFF8
7FFFF8
7FFFF8
7FFFF8
ENDCHAR

STARTCHAR greater
ENCODING 62
SWIDTH 479 0
DWIDTH 24 0
BBX 22 24 1 6
BITMAP
400000
700000
7C0000
7F0000
7FC000
1FF000
07FC00
01FE00
007F80
001FE0
0007F8
0001F8
0000F8
0003F8
000FF8
003FE0
00FF80
01FE00
07F800
1FE000
7F8000
7E0000
780000
600000
ENDCHAR

STARTCHAR question
ENCODING 63
SWIDTH 456 0
DWIDTH 23 0
BBX 22 37 0 0
BITMAP
007C00
03FF00
07FFC0
0FFFE0
1F03E0
1E01F0
3E00F0
3C0078
3C0078
380078
380078
000078
000078
0000F0
0000F0
0001E0
0003E0
0007C0
000F80
001F00
001E00
003C00
003C00
007800
007800
007800
007800
007800
000000
000000
000000
000000
007800
007800
007800
007800
007800
ENDCHAR

STARTCHAR at
ENCODING 64
SWIDTH 832 0
DWIDTH 42 0
BBX 40 48 1 -11
BITMAP
00003F8000
0003FFF000
000FFFFC00
001FFFFE00
007F807F00
00FC000F80
01F00007C0
01E00003E0
03C00001E0
07800000F0
0700380070
0F00FE3878
0E03FF3838
1E07FFB838
1C0783F81C
1C0F01F81C
380F01F81C
381E00F01C
381C00F01C
783C00F01C
703C00F01C
703800F01C
707800F01C
707800E01C
707800E038
707800E038
707801E038
707801E070
707801E070
707803C0F0
783C07C1E0
383C07C3C0
383E0FE7C0
3C1FFFFF80
3C0FF9FF00
1C07F1FE00
1E03E0F800
0F0000001E
0F0000003C
0780000078
03C00000F8
03F00001F0
01FC0007E0
007F803FC0
003FFFFF80
000FFFFE00
0003FFF800
00003F8000
ENDCHAR

STARTCHAR A
ENCODING 65
SWIDTH 547 0
DWIDTH 27 0
BBX 31 36 -2 0
BITMAP
0007C000
0007C000
0007C000
000FE000
000FE000
000EE000
001EF000
001EF000
001CF000
003C7800
003C7800
00387800
00783C00
00783C00
00703C00
00F01E00
00F01E00
00F01E00
01E00F00
01E00F00
01E00F00
01FFFF80
03FFFF80
03FFFF80
03FFFFC0
078003C0
078003C0
078003E0
0F0001E0
0F0001E0
0F0001F0
1E0000F0
1E0000F0
1E0000F8
3E000078
3C000078
ENDCHAR

STARTCHAR B
ENCODING 66
SWIDTH 547 0
DWIDTH 27 0
BBX 25 36 2 0
BITMAP
7FFF8000
7FFFC000
7FFFF000
7FFFF000
7801F800
78007800
78003C00
78003C00
78003C00
78003C00
78003C00
78003C00
78003800
78007800
7801F000
7FFFE000
7FFFC000
7FFFF000
7FFFF800
7801FC00
78007C00
78003E00
78001E00
78001E00
78001E00
78001E00
78001E00
78001E00
78001E00
78003C00
78007C00
7801FC00
7FFFF800
7FFFF000
7FFFE000
7FFF8000
ENDCHAR

STARTCHAR C
ENCODING 67
SWIDTH 592 0
DWIDTH 30 0
BBX 28 38 1 -1
BITMAP
001FC000
007FF800
01FFFC00
03FFFE00
07F07F00
07C01F80
0F800F80
1F0007C0
1E0007C0
1E0003C0
3C0003C0
3C000100
3C000000
7C000000
78000000
78000000
78000000
78000000
78000000
78000000
78000000
78000000
78000000
78000000
7C000000
3C0001C0
3C0001E0
3C0003E0
1E0003C0
1E0003C0
1F0007C0
0F800F80
0FC01F80
07F07F00
03FFFE00
01FFFC00
007FF000
001FC000
ENDCHAR

STARTCHAR D
ENCODING 68
SWIDTH 592 0
DWIDTH 30 0
BBX 27 36 2 0
BITMAP
7FFF8000
7FFFE000
7FFFF000
7FFFF800
7801FC00
78007C00
78003E00
78001E00
78001F00
78000F00
78000F00
78000F00
78000780
78000780
78000780
78000780
78000780
78000780
78000780
78000780
78000780
78000780
78000780
78000780
78000F00
78000F00
78000F00
78001F00
78001E00
78003E00
78007C00
7801FC00
7FFFF800
7FFFF000
7FFFC000
7FFF0000
ENDCHAR

STARTCHAR E
ENCODING 69
SWIDTH 547 0
DWIDTH 27 0
BBX 24 36 2 0
BITMAP
7FFFFC
7FFFFC
7FFFFC
7FFFFC
780000
780000
780000
780000
780000
780000
780000
780000
780000
780000
780000
7FFFF8
7FFFF8
7FFFF8
7FFFF8
780000
780000
780000
780000
780000
780000
780000
780000
780000
780000
780000
780000
780000
7FFFFE
7FFFFE
7FFFFE
7FFFFE
ENDCHAR

STARTCHAR F
ENCODING 70
SWIDTH 501 0
DWIDTH 25 0
BBX 22 36 2 0
BITMAP
7FFFF8
7FFFF8
7FFFF8
7FFFF8
780000
780000
780000
780000
780000
780000
780000
780000
780000
780000
780000
7FFFE0
7FFFE0
7FFFE0
7FFFE0
780000
780000
780000
780000
780000
780000
780000
780000
780000
780000
780000
780000
780000
780000
780000
780000
780000
ENDCHAR

STARTCHAR G
ENCODING 71
SWIDTH 638 0
DWIDTH 32 0
BBX 29 38 1 -1
BITMAP
000FE000
007FFC00
00FFFE00
03FFFF00
03F83F80
07E00FC0
0F8007C0
0F0003E0
1E0001E0
1E0001E0
3C0000E0
3C0000C0
3C000000
3C000000
78000000
78000000
78000000
78000000
78000000
7800FFF0
7800FFF0
7800FFF0
7800FFF0
780000F0
7C0000F0
3C0000F0
3C0000F0
3E0000F0
1E0000F0
1F0000F0
1F0000F0
0F8003F0
07E007F0
03F83FE0
01FFFFC0
00FFFF00
007FFE00
000FF000
ENDCHAR

STARTCHAR H
ENCODING 72
SWIDTH 592 0
DWIDTH 30 0
BBX 25 36 2 0
BITMAP
78000F00
78000F00
78000F00
78000F00
78000F00
78000F00
78000F00
78000F00
78000F00
78000F00
78000F00
78000F00
78000F00
78000F00
78000F00
7FFFFF00
7FFFFF00
7FFFFF00
7FFFFF00
78000F00
78000F00
78000F00
78000F00
78000F00
78000F00
78000F00
78000F00
78000F00
78000F00
78000F00
78000F00
78000F00
78000F00
78000F00
78000F00
78000F00
ENDCHAR

STARTCHAR I
ENCODING 73
SWIDTH 228 0
DWIDTH 11 0
BBX 6 36 3 0
BITMAP
78
78
78
78
78
78
78
78
78
78
78
78
78
78
78
78
78
78
78
78
78
78
78
78
78
78
78
78
78
78
78
78
78
78
78
78
ENDCHAR

STARTCHAR J
ENCODING 74
SWIDTH 410 0
DWIDTH 20 0
BBX 19 37 -1 -1
BITMAP
0003C0
0003C0
0003C0
0003C0
0003C0
0003C0
0003C0
0003C0
0003C0
0003C0
0003C0
0003C0
0003C0
0003C0
0003C0
0003C0
0003C0
0003C0
0003C0
0003C0
0003C0
0003C0
0003C0
0003C0
0003C0
0003C0
3803C0
3C03C0
3C03C0
3C03C0
3C0780
3E0780
1F1F80
1FFF00
0FFF00
07FE00
01F800
ENDCHAR

STARTCHAR K
ENCODING 75
SWIDTH 547 0
DWIDTH 27 0
BBX 27 36 2 0
BITMAP
78001F00
78003F00
78003E00
78007C00
7800F800
7801F000
7803E000
7807C000
7807C000
780F8000
781F0000
783E0000
787C0000
78780000
78F80000
79F80000
7BFC0000
7FFC0000
7FBE0000
7F1E0000
7F1F0000
7E0F8000
7C0F8000
7807C000
7803C000
7803E000
7801F000
7801F000
7800F800
7800F800
78007C00
78003E00
78003E00
78001F00
78001F00
78000F80
ENDCHAR

STARTCHAR L
ENCODING 76
SWIDTH 456 0
DWIDTH 23 0
BBX 21 36 2 0
BITMAP
780000
780000
780000
780000
780000
780000
780000
780000
780000
780000
780000
780000
780000
780000
780000
780000
780000
780000
780000
780000
780000
780000
780000
780000
780000
780000
780000
780000
780000
780000
780000
780000
7FFFE0
7FFFE0
7FFFE0
7FFFE0
ENDCHAR

STARTCHAR M
ENCODING 77
SWIDTH 683 0
DWIDTH 34 0
BBX 30 36 2 0
BITMAP
7E0000F8
7E0001F8
7F0001F8
7F0001F8
7F0001F8
7F0003F8
7F8003F8
7F8003F8
7B800778
7BC00778
7BC00778
7BC00778
79C00E78
79E00E78
79E00E78
78E01C78
78E01C78
78F01C78
78F01C78
78703878
78703878
78783878
78383878
78387078
783C7078
783C7078
781CE078
781CE078
781EE078
781EE078
780FC078
780FC078
780FC078
78078078
78078078
78078078
ENDCHAR

STARTCHAR N
ENCODING 78
SWIDTH 592 0
DWIDTH 30 0
BBX 25 36 2 0
BITMAP
78000F00
7C000F00
7C000F00
7E000F00
7E000F00
7F000F00
7F800F00
7F800F00
7FC00F00
7BC00F00
7BE00F00
79E00F00
79F00F00
78F00F00
78F80F00
78780F00
783C0F00
783C0F00
781E0F00
781F0F00
780F0F00
780F8F00
78078F00
7807CF00
7803CF00
7803EF00
7801EF00
7801FF00
7800FF00
78007F00
78007F00
78003F00
78003F00
78001F00
78001F00
78000F00
ENDCHAR

STARTCHAR O
ENCODING 79
SWIDTH 638 0
DWIDTH 32 0
BBX 31 38 1 -1
BITMAP
001FE000
007FF800
00FFFE00
03FFFF00
07F03F80
07C00F80
0F8007C0
0F0003E0
1E0001E0
1E0001F0
3C0000F0
3C0000F0
3C0000F0
3C0000F8
78000078
78000078
78000078
78000078
78000078
78000078
78000078
78000078
78000078
78000078
3C000078
3C0000F0
3C0000F0
3E0000F0
1E0001E0
1F0001E0
0F0003E0
0F8007C0
07C00F80
03F03F80
01FFFF00
00FFFE00
007FF800
000FE000
ENDCHAR

STARTCHAR P
ENCODING 80
SWIDTH 547 0
DWIDTH 27 0
BBX 25 36 2 0
BITMAP
7FFF8000
7FFFE000
7FFFF000
7FFFF800
7800FC00
78007C00
78003E00
78001E00
78001E00
78001E00
78001E00
78001E00
78001E00
78001E00
78003C00
78007C00
7801FC00
7FFFF800
7FFFF000
7FFFE000
7FFF8000
78000000
78000000
78000000
78000000
78000000
78000000
78000000
78000000
78000000
78000000
78000000
78000000
78000000
78000000
78000000
ENDCHAR

STARTCHAR Q
ENCODING 81
SWIDTH 638 0
DWIDTH 32 0
BBX 31 40 1 -3
BITMAP
001FC000
007FF800
00FFFC00
03FFFF00
07F03F80
07C00F80
0F8007C0
0F0003E0
1E0001E0
1E0001F0
3C0000F0
3C0000F0
3C0000F0
3C000078
78000078
78000078
78000078
78000078
78000078
78000078
78000078
78000078
78000078
78000078
3C000078
3C0000F0
3C0000F0
3E0080F0
1E00E1F0
1F00F1E0
0F01FBE0
0F807FC0
07C03F80
03F03F80
01FFFFC0
00FFFFE0
007FF9F8
000FE0F8
00000078
00000018
ENDCHAR

STARTCHAR R
ENCODING 82
SWIDTH 592 0
DWIDTH 30 0
BBX 29 36 2 0
BITMAP
7FFFE000
7FFFF800
7FFFFC00
7FFFFE00
78003F00
78001F00
78000F80
78000780
78000780
78000780
78000780
78000780
78000F80
78000F80
78001F00
78007F00
7FFFFE00
7FFFFC00
7FFFF000
7FFF8000
780FC000
7803E000
7801F000
7800F800
7800F800
78007C00
78003C00
78003E00
78001F00
78001F00
78000F80
78000F80
780007C0
780007C0
780003E0
780003E0
ENDCHAR

STARTCHAR S
ENCODING 83
SWIDTH 547 0
DWIDTH 27 0
BBX 26 38 1 -1
BITMAP
007F8000
01FFE000
07FFF800
0FFFFC00
0FC1FC00
1F003E00
1E001E00
3C001F00
3C000F00
3C000F00
3C000F00
3C000000
3E000000
1F000000
1FC00000
0FF00000
0FFF0000
03FFE000
01FFF800
007FFC00
000FFE00
0000FE00
00003F00
00000F00
00000F80
38000780
78000780
78000780
78000780
3C000780
3C000F00
3E000F00
1F801F00
1FE0FE00
0FFFFC00
07FFF800
01FFF000
007FC000
ENDCHAR

STARTCHAR T
ENCODING 84
SWIDTH 501 0
DWIDTH 25 0
BBX 26 36 -1 0
BITMAP
7FFFFF80
7FFFFF80
7FFFFF80
7FFFFF80
001E0000
001E0000
001E0000
001E0000
001E0000
001E0000
001E0000
001E0000
001E0000
001E0000
001E0000
001E0000
001E0000
001E0000
001E0000
001E0000
001E0000
001E0000
001E0000
001E0000
001E0000
001E0000
001E0000
001E0000
001E0000
001E0000
001E0000
001E0000
001E0000
001E0000
001E0000
001E0000
ENDCHAR

STARTCHAR U
ENCODING 85
SWIDTH 592 0
DWIDTH 30 0
BBX 25 37 2 -1
BITMAP
78000F00
78000F00
78000F00
78000F00
78000F00
78000F00
78000F00
78000F00
78000F00
78000F00
78000F00
78000F00
78000F00
78000F00
78000F00
78000F00
78000F00
78000F00
78000F00
78000F00
78000F00
78000F00
78000F00
78000F00
78000F00
78000F00
78000F00
7C000F00
3C001E00
3C001E00
3E003E00
1F007C00
1FC1FC00
0FFFF800
07FFF000
03FFE000
00FF8000
ENDCHAR

STARTCHAR V
ENCODING 86
SWIDTH 547 0
DWIDTH 27 0
BBX 30 36 -1 0
BITMAP
7C0000F0
3C0000F0
3C0001E0
3C0001E0
1E0001E0
1E0003C0
1E0003C0
0F0003C0
0F000380
0F000780
07800780
07800700
07800F00
07800F00
03C00E00
03C01E00
03C01E00
01E01C00
01E01C00
01E03C00
00E03C00
00F03800
00F07800
00707800
00787000
0078F000
0038F000
003CE000
003CE000
001DE000
001DC000
001FC000
001FC000
000F8000
000F8000
000F8000
ENDCHAR

STARTCHAR W
ENCODING 87
SWIDTH 774 0
DWIDTH 39 0
BBX 41 36 -1 0
BITMAP
7C003E001E00
3C003E001E00
3C007E001E00
3C007F001C00
3C007F003C00
1C0077003C00
1E0077003C00
1E00F7003800
1E00E7803800
1E00E7807800
0E00E3807800
0F01E3807800
0F01E3C07000
0F01C3C07000
0701C3C0F000
0703C1C0F000
0783C1E0E000
078381E0E000
078381E0E000
038380E1E000
038780F1E000
03C700F1C000
03C700F1C000
03C70071C000
01CF0073C000
01CF00738000
01CE007B8000
01EE007B8000
00EE003B8000
00FE003B8000
00FC003F0000
00FC003F0000
00FC001F0000
007C001F0000
0078001E0000
0078001E0000
ENDCHAR

STARTCHAR X
ENCODING 88
SWIDTH 547 0
DWIDTH 27 0
BBX 30 36 -1 0
BITMAP
1E0001E0
1F0003C0
0F8003C0
07800780
07C00F80
03C00F00
03E01E00
01F03E00
00F03C00
00F87C00
00787800
007CF000
003CF000
003FE000
001FC000
000FC000
000F8000
000F8000
000FC000
001FE000
001FE000
003DF000
007CF000
0078F800
00F87800
00F07C00
01E03E00
03E03E00
03C01F00
07C00F00
07800F80
0F8007C0
1F0007C0
1E0003E0
3E0003E0
3C0001F0
ENDCHAR

STARTCHAR Y
ENCODING 89
SWIDTH 547 0
DWIDTH 27 0
BBX 30 36 -2 0
BITMAP
3E0000F0
1E0001F0
1F0001E0
0F0003E0
0F8003C0
078007C0
07C00780
03E00F00
03E00F00
01F01E00
01F01E00
00F83C00
00787C00
007C7800
003CF000
003EF000
001FE000
001FE000
000FC000
000FC000
00078000
00078000
00078000
00078000
00078000
00078000
00078000
00078000
00078000
00078000
00078000
00078000
00078000
00078000
00078000
00078000
ENDCHAR

STARTCHAR Z
ENCODING 90
SWIDTH 501 0
DWIDTH 25 0
BBX 26 36 -1 0
BITMAP
1FFFFF00
1FFFFF00
1FFFFF00
1FFFFF00
00000F00
00001E00
00003E00
00007C00
00007C00
0000F800
0001F000
0001F000
0003E000
0003C000
0007C000
000F8000
000F0000
001F0000
003E0000
003C0000
007C0000
00F80000
00F00000
01F00000
03E00000
03C00000
07C00000
0F800000
0F000000
1F000000
1E000000
3C000000
3FFFFF80
3FFFFF80
3FFFFF80
3FFFFF80
ENDCHAR

STARTCHAR bracketleft
ENCODING 91
SWIDTH 228 0
DWIDTH 11 0
BBX 11 46 1 -10
BITMAP
7F80
7F80
7F80
7F80
7800
7800
7800
7800
7800
7800
7800
7800
7800
7800
7800
7800
7800
7800
7800
7800
7800
7800
7800
7800
7800
7800
7800
7800
7800
7800
7800
7800
7800
7800
7800
7800
7800
7800
7800
7800
7800
7800
7F80
7F80
7F80
7F80
ENDCHAR

STARTCHAR backslash
ENCODING 92
SWIDTH 228 0
DWIDTH 11 0
BBX 14 37 -1 -1
BITMAP
7000
7000
3000
3800
3800
3800
1800
1C00
1C00
1C00
1C00
0E00
0E00
0E00
0E00
0600
0700
0700
0700
0700
0380
0380
0380
0380
01C0
01C0
01C0
01C0
00C0
00E0
00E0
00E0
00E0
0070
0070
0070
0070
ENDCHAR

STARTCHAR bracketright
ENCODING 93
SWIDTH 228 0
DWIDTH 11 0
BBX 11 46 -1 -10
BITMAP
3FC0
3FC0
3FC0
3FC0
03C0
03C0
03C0
03C0
03C0
03C0
03C0
03C0
03C0
03C0
03C0
03C0
03C0
03C0
03C0
03C0
03C0
03C0
03C0
03C0
03C0
03C0
03C0
03C0
03C0
03C0
03C0
03C0
03C0
03C0
03C0
03C0
03C0
03C0
03C0
03C0
03C0
03C0
3FC0
3FC0
3FC0
3FC0
ENDCHAR

STARTCHAR asciicircum
ENCODING 94
SWIDTH 385 0
DWIDTH 19 0
BBX 20 20 0 16
BITMAP
00E000
00F000
01F000
01F000
01F800
03B800
03BC00
079C00
071C00
071E00
0F0E00
0E0E00
0E0F00
1E0700
1C0700
1C0780
3C0380
3C0380
3803C0
7801C0
ENDCHAR

STARTCHAR underscore
ENCODING 95
SWIDTH 456 0
DWIDTH 23 0
BBX 29 3 -3 -6
BITMAP
3FFFFFE0
3FFFFFE0
3FFFFFE0
ENDCHAR

STARTCHAR quoteleft
ENCODING 96
SWIDTH 182 0
DWIDTH 9 0
BBX 7 12 2 24
BITMAP
08
18
30
30
60
60
60
78
78
78
78
78
ENDCHAR

STARTCHAR a
ENCODING 97
SWIDTH 456 0
DWIDTH 23 0
BBX 22 28 0 -1
BITMAP
00FE00
03FF80
0FFFC0
0FFFE0
1F03E0
1E01F0
3C00F0
3C00F0
1800F0
0000F0
0000F0
000FF0
01FFF0
07FFF0
0FFEF0
1FF0F0
3F00F0
3C00F0
7800F0
7800F0
7800F0
7801F0
7803F0
3C07F0
3F1F70
1FFE70
1FFC78
07F000
ENDCHAR

STARTCHAR b
ENCODING 98
SWIDTH 456 0
DWIDTH 23 0
BBX 21 37 1 -1
BITMAP
780000
780000
780000
780000
780000
780000
780000
780000
780000
787800
79FE00
7BFF00
7FFF80
7F07C0
7E03C0
7C01E0
7C01E0
7801E0
7800F0
7800F0
7800F0
7800F0
7800F0
7800F0
7800F0
7800F0
7800F0
7800E0
7801E0
7C01E0
7C01E0
7E03C0
7F07C0
7FFF80
7BFF00
79FE00
007800
ENDCHAR

STARTCHAR c
ENCODING 99
SWIDTH 410 0
DWIDTH 20 0
BBX 21 28 0 -1
BITMAP
007C00
03FF00
07FF80
0FFFC0
1F07C0
1E03E0
3C01E0
3C01E0
3C00E0
380000
780000
780000
780000
780000
780000
780000
780000
780000
3800F0
3C00E0
3C00E0
3C01E0
1E03C0
1F07C0
0FFF80
07FF00
03FE00
00F800
ENDCHAR

STARTCHAR d
ENCODING 100
SWIDTH 456 0
DWIDTH 23 0
BBX 21 37 0 -1
BITMAP
0000F0
0000F0
0000F0
0000F0
0000F0
0000F0
0000F0
0000F0
0000F0
00F0F0
03FCF0
07FEF0
0FFFF0
1F07F0
1E03F0
3C01F0
3C01F0
3C00F0
3800F0
7800F0
7800F0
7800F0
780070
780070
780070
7800F0
7800F0
3800F0
3C00F0
3C00F0
1E01F0
1E03F0
0F07F0
0FFFF0
07FEF0
03FCF0
00F000
ENDCHAR

STARTCHAR e
ENCODING 101
SWIDTH 456 0
DWIDTH 23 0
BBX 22 28 0 -1
BITMAP
007C00
03FF00
07FF80
0FFFC0
1F83E0
1E01E0
3E00F0
3C00F0
3C0070
380078
780078
7FFFF8
7FFFF8
7FFFF8
7FFFF8
780000
780000
780000
380000
3C0078
3C00F0
3E00F0
1F01F0
1F83E0
0FFFC0
07FFC0
01FF00
007C00
ENDCHAR

STARTCHAR f
ENCODING 102
SWIDTH 228 0
DWIDTH 11 0
BBX 15 37 -1 0
BITMAP
01F8
03F8
07F8
07F8
0780
0F00
0F00
0F00
0F00
0F00
0F00
7FF0
7FF0
7FF0
0F00
0F00
0F00
0F00
0F00
0F00
0F00
0F00
0F00
0F00
0F00
0F00
0F00
0F00
0F00
0F00
0F00
0F00
0F00
0F00
0F00
0F00
0F00
ENDCHAR

STARTCHAR g
ENCODING 103
SWIDTH 456 0
DWIDTH 23 0
BBX 22 38 0 -11
BITMAP
00F800
03FE70
07FF70
0FFFF0
1F07F0
1E03F0
3C01F0
3C00F0
3C00F0
3800F0
780070
780070
780070
780070
780070
780070
780070
380070
3C00F0
3C00F0
3C01F0
1E03F0
1F07F0
0FFF70
07FF70
03FE70
00F870
0000F0
0000F0
3000F0
3C00F0
3C01E0
3C01E0
1F07E0
1FFFC0
0FFF80
07FF00
00F800
ENDCHAR

STARTCHAR h
ENCODING 104
SWIDTH 456 0
DWIDTH 23 0
BBX 20 36 1 0
BITMAP
780000
780000
780000
780000
780000
780000
780000
780000
780000
787C00
79FF00
7BFF80
7FFFC0
7F07C0
7E03C0
7C01E0
7C01E0
7801E0
7801E0
7801E0
7801E0
7801E0
7801E0
7801E0
7801E0
7801E0
7801E0
7801E0
7801E0
7801E0
7801E0
7801E0
7801E0
7801E0
7801E0
7801E0
ENDCHAR

STARTCHAR i
ENCODING 105
SWIDTH 182 0
DWIDTH 9 0
BBX 6 36 2 0
BITMAP
78
78
78
78
78
00
00
00
00
00
78
78
78
78
78
78
78
78
78
78
78
78
78
78
78
78
78
78
78
78
78
78
78
78
78
78
ENDCHAR

STARTCHAR j
ENCODING 106
SWIDTH 182 0
DWIDTH 9 0
BBX 11 47 -3 -11
BITMAP
03C0
03C0
03C0
03C0
03C0
0000
0000
0000
0000
0000
03C0
03C0
03C0
03C0
03C0
03C0
03C0
03C0
03C0
03C0
03C0
03C0
03C0
03C0
03C0
03C0
03C0
03C0
03C0
03C0
03C0
03C0
03C0
03C0
03C0
03C0
03C0
03C0
03C0
03C0
03C0
03C0
0780
3F80
3F80
3F00
3E00
ENDCHAR

STARTCHAR k
ENCODING 107
SWIDTH 410 0
DWIDTH 20 0
BBX 20 36 1 0
BITMAP
780000
780000
780000
780000
780000
780000
780000
780000
780000
780000
7807C0
780F80
781F00
781E00
783C00
787800
78F800
79F000
79E000
7BC000
7FC000
7FE000
7FE000
7EF000
7CF800
787800
787C00
783C00
783E00
781E00
781F00
780F00
780780
780780
7803C0
7803E0
ENDCHAR

STARTCHAR l
ENCODING 108
SWIDTH 182 0
DWIDTH 9 0
BBX 6 36 1 0
BITMAP
78
78
78
78
78
78
78
78
78
78
78
78
78
78
78
78
78
78
78
78
78
78
78
78
78
78
78
78
78
78
78
78
78
78
78
78
ENDCHAR

STARTCHAR m
ENCODING 109
SWIDTH 683 0
DWIDTH 34 0
BBX 31 27 1 0
BITMAP
007C07C0
71FE0FE0
73FF1FF0
77FFBFF8
7F0FF878
7E07E07C
7C03E03C
7C03C03C
7803C03C
7803C03C
7803C03C
7803C03C
7803C03C
7803C03C
7803C03C
7803C03C
7803C03C
7803C03C
7803C03C
7803C03C
7803C03C
7803C03C
7803C03C
7803C03C
7803C03C
7803C03C
7803C03C
ENDCHAR

STARTCHAR n
ENCODING 110
SWIDTH 456 0
DWIDTH 23 0
BBX 20 27 1 0
BITMAP
007C00
79FF00
7BFF80
7FFFC0
7F07C0
7E03C0
7C01E0
7C01E0
7801E0
7801E0
7801E0
7801E0
7801E0
7801E0
7801E0
7801E0
7801E0
7801E0
7801E0
7801E0
7801E0
7801E0
7801E0
7801E0
7801E0
7801E0
7801E0
ENDCHAR

STARTCHAR o
ENCODING 111
SWIDTH 456 0
DWIDTH 23 0
BBX 22 28 0 -1
BITMAP
007800
03FF00
07FF80
0FFFC0
1F03E0
1E01E0
3C01F0
3C00F0
3C00F0
380078
780078
780078
780078
780078
780078
780078
780078
780078
380070
3C00F0
3C00F0
3E00F0
1E01E0
1F83E0
0FFFC0
07FF80
03FF00
007800
ENDCHAR

STARTCHAR p
ENCODING 112
SWIDTH 456 0
DWIDTH 23 0
BBX 21 37 1 -10
BITMAP
007800
79FE00
7BFF00
7FFF80
7F07C0
7E03C0
7C01E0
7C01E0
7801E0
7800F0
7800F0
7800F0
7800F0
7000F0
7000F0
7800F0
7800F0
7800F0
7800E0
7801E0
7C01E0
7C01E0
7E03C0
7F07C0
7FFF80
7BFF00
79FE00
787000
780000
780000
780000
780000
780000
780000
780000
780000
780000
ENDCHAR

STARTCHAR q
ENCODING 113
SWIDTH 456 0
DWIDTH 23 0
BBX 21 37 0 -10
BITMAP
01F800
07FE70
0FFF70
0F8F70
1F03F0
1E01F0
3C01F0
3C00F0
3C00F0
3800F0
7800F0
7800F0
780070
780070
780070
780070
780070
7800F0
3C00F0
3C00F0
3C00F0
1E01F0
1E03F0
0F87F0
0FFFF0
07FEF0
03FCF0
0070F0
0000F0
0000F0
0000F0
0000F0
0000F0
0000F0
0000F0
0000F0
0000F0
ENDCHAR

STARTCHAR r
ENCODING 114
SWIDTH 273 0
DWIDTH 14 0
BBX 14 27 1 0
BITMAP
00E0
73F8
73F8
77F0
77F0
7E10
7C00
7C00
7800
7800
7800
7800
7800
7800
7800
7800
7800
7800
7800
7800
7800
7800
7800
7800
7800
7800
7800
ENDCHAR

STARTCHAR s
ENCODING 115
SWIDTH 410 0
DWIDTH 20 0
BBX 20 28 0 -1
BITMAP
01F800
07FE00
0FFF00
1FFF80
1E0780
3C03C0
3803C0
3803C0
3C0000
3C0000
3F0000
1FE000
1FFC00
07FF00
03FF80
007FC0
000FC0
0003E0
0001E0
7801E0
7801E0
3C01E0
3C03C0
3E07C0
1FFF80
0FFF00
07FE00
00F800
ENDCHAR

STARTCHAR t
ENCODING 116
SWIDTH 228 0
DWIDTH 11 0
BBX 13 36 -1 -1
BITMAP
0100
0300
0F00
0F00
0F00
0F00
0F00
0F00
0F00
7FE0
7FE0
7FE0
0F00
0F00
0F00
0F00
0F00
0F00
0F00
0F00
0F00
0F00
0F00
0F00
0F00
0F00
0F00
0F00
0F00
0F00
0F00
0F80
0FF0
07F0
07F0
01F0
ENDCHAR

STARTCHAR u
ENCODING 117
SWIDTH 456 0
DWIDTH 23 0
BBX 20 27 1 -1
BITMAP
7801E0
7801E0
7801E0
7801E0
7801E0
7801E0
7801E0
7801E0
7801E0
7801E0
7801E0
7801E0
7801E0
7801E0
7801E0
7801E0
7801E0
7801E0
7801E0
7801E0
7C03E0
3C07E0
3E0EE0
3FFEE0
1FFCE0
0FF8E0
03E000
ENDCHAR

STARTCHAR v
ENCODING 118
SWIDTH 410 0
DWIDTH 20 0
BBX 23 26 -1 0
BITMAP
3C0078
3C0078
3C0070
1C00F0
1E00F0
1E00E0
0E01E0
0F01E0
0F01C0
0F01C0
0703C0
078380
078380
038780
03C780
03C700
01CF00
01CF00
01EE00
00EE00
00FE00
00FC00
007C00
007C00
007800
007800
ENDCHAR

STARTCHAR w
ENCODING 119
SWIDTH 592 0
DWIDTH 30 0
BBX 32 26 -1 0
BITMAP
7803C01C
3803C01C
3C03C03C
3C07E038
3C07E038
1C07E038
1C07E078
1E0EE070
1E0EF070
0E0E7070
0E0E70F0
0F0E70E0
0F1C70E0
071C78E0
071C39E0
071C39C0
07BC39C0
03B83DC0
03B83FC0
03B81F80
03F81F80
01F01F80
01F01F80
01F01F00
01F00F00
00F00F00
ENDCHAR

STARTCHAR x
ENCODING 120
SWIDTH 410 0
DWIDTH 20 0
BBX 23 26 -1 0
BITMAP
3E00F0
1E00F0
1F01E0
0F03E0
0F83C0
078780
03C780
03CF00
01FF00
01FE00
00FC00
007C00
007C00
007C00
00FE00
01FE00
01EF00
03CF00
03C780
0787C0
0783C0
0F03E0
1F01E0
1E01F0
3C00F0
3C0078
ENDCHAR

STARTCHAR y
ENCODING 121
SWIDTH 410 0
DWIDTH 20 0
BBX 23 37 -1 -11
BITMAP
3C0078
3C0078
3C0070
1E0070
1E00F0
1E00E0
0E00E0
0F01E0
0F01E0
0701C0
0783C0
0783C0
078380
038380
03C780
03C700
01C700
01EF00
01EF00
00EE00
00EE00
00FE00
007C00
007C00
007C00
007800
003800
003800
007800
007000
007000
00F000
01E000
1FE000
1FC000
1FC000
0F0000
ENDCHAR

STARTCHAR z
ENCODING 122
SWIDTH 410 0
DWIDTH 20 0
BBX 22 26 -1 0
BITMAP
1FFFF0
1FFFF0
1FFFF0
1FFFF0
0001E0
0003C0
0007C0
000780
000F00
001E00
003E00
003C00
007800
00F800
00F000
01E000
03C000
07C000
078000
0F0000
1F0000
3E0000
3FFFF8
3FFFF8
3FFFF8
3FFFF8
ENDCHAR

STARTCHAR braceleft
ENCODING 123
SWIDTH 274 0
DWIDTH 14 0
BBX 15 48 0 -11
BITMAP
0078
00F8
01F8
01F8
03C0
03C0
0380
0380
0380
0380
0380
0380
0380
0380
0380
0380
0380
0380
0780
0780
0700
0F00
3E00
3C00
3C00
3E00
0F00
0700
0780
0780
0380
0380
0380
0380
0380
0380
0380
0380
0380
0380
0380
0380
03C0
03C0
01F8
01F8
00F8
0078
ENDCHAR

STARTCHAR bar
ENCODING 124
SWIDTH 213 0
DWIDTH 11 0
BBX 7 47 2 -11
BITMAP
38
38
38
38
38
38
38
38
38
38
38
38
38
38
38
38
38
38
38
38
38
38
38
38
38
38
38
38
38
38
38
38
38
38
38
38
38
38
38
38
38
38
38
38
38
38
38
ENDCHAR

STARTCHAR braceright
ENCODING 125
SWIDTH 274 0
DWIDTH 14 0
BBX 15 48 -1 -11
BITMAP
3C00
3E00
3F00
3F00
0780
0780
0380
0380
0380
0380
0380
0380
0380
0380
0380
0380
0380
03C0
03C0
03C0
01E0
01F0
00F8
0078
0078
00F8
01F0
01C0
01C0
03C0
03C0
0380
0380
0380
0380
0380
0380
0380
0380
0380
0380
0380
0780
0780
3F00
3F00
3E00
3C00
ENDCHAR

STARTCHAR asciitilde
ENCODING 126
SWIDTH 479 0
DWIDTH 24 0
BBX 24 8 0 14
BITMAP
07C000
1FF004
3FFC1C
3FFFFC
3FFFFC
383FFC
200FF8
0001E0
ENDCHAR

STARTCHAR space
ENCODING 160
SWIDTH 228 0
DWIDTH 14 0
BBX 0 0 0 0
BITMAP
ENDCHAR

STARTCHAR exclamdown
ENCODING 161
SWIDTH 273 0
DWIDTH 14 0
BBX 8 36 3 -10
BITMAP
3C
3C
3C
3C
3C
00
00
00
00
18
18
18
18
18
18
3C
3C
3C
3C
3C
3C
3C
3C
3C
3C
3C
3C
3C
3C
3C
3C
3C
3C
3C
3C
3C
ENDCHAR

STARTCHAR cent
ENCODING 162
SWIDTH 456 0
DWIDTH 23 0
BBX 21 46 1 -10
BITMAP
000100
000180
000380
000300
000300
000300
000700
000600
000600
007E00
03FE00
07FF80
0FFFC0
1F0FC0
1E1FE0
3C1DE0
3C19E0
3C18E0
381800
783800
783000
783000
783000
787000
786000
786000
786000
38E0F0
3CE0E0
3CC1E0
3CC1E0
1FC3C0
1FC7C0
0FFF80
07FF00
03FE00
03F800
030000
030000
030000
070000
060000
060000
060000
0E0000
040000
ENDCHAR

STARTCHAR sterling
ENCODING 163
SWIDTH 456 0
DWIDTH 23 0
BBX 24 38 -1 -1
BITMAP
001F00
007FC0
01FFE0
03FFF0
03E1F0
07C078
078078
0F003C
0F003C
0F003C
0F0000
0F0000
0F0000
0F0000
078000
078000
078000
3FFE00
3FFE00
3FFE00
3FFE00
03C000
03C000
03C000
03C000
03C000
03C000
038000
078000
070000
070000
0E0000
1FF004
3FFE1C
3FFFFC
3FFFFC
3C0FFE
1001F8
ENDCHAR

STARTCHAR currency
ENCODING 164
SWIDTH 456 0
DWIDTH 23 0
BBX 23 23 0 6
BITMAP
180030
3C7C78
3FFF78
1FFFF8
1FFFF0
0FC7E0
0F01E0
0E00F0
1E00F0
1C0070
1C0070
1C0070
1C0070
1C0070
1E00F0
0E00F0
0F01E0
0FC7E0
1FFFF0
1FFFF8
3DFF78
3C7C78
180030
ENDCHAR

STARTCHAR yen
ENCODING 165
SWIDTH 456 0
DWIDTH 23 0
BBX 26 36 -2 0
BITMAP
3C000F00
3C001F00
1E001E00
1E001E00
0F003C00
0F003C00
07807800
07807800
03C0F000
03C0F000
01E1E000
01E1E000
00E1E000
00F3C000
00F3C000
007F8000
007F8000
1FFFFE00
1FFFFE00
1FFFFE00
1FFFFE00
001E0000
001E0000
001E0000
001E0000
1FFFFE00
1FFFFE00
1FFFFE00
001E0000
001E0000
001E0000
001E0000
001E0000
001E0000
001E0000
001E0000
ENDCHAR

STARTCHAR brokenbar
ENCODING 166
SWIDTH 213 0
DWIDTH 11 0
BBX 7 47 2 -11
BITMAP
38
38
38
38
38
38
38
38
38
38
38
38
38
38
38
38
38
38
38
00
00
00
00
00
00
00
00
00
38
38
38
38
38
38
38
38
38
38
38
38
38
38
38
38
38
38
38
ENDCHAR

STARTCHAR section
ENCODING 167
SWIDTH 456 0
DWIDTH 23 0
BBX 23 48 0 -11
BITMAP
007C00
01FF00
03FF80
03FFC0
0783E0
0781E0
0F01E0
0F00E0
0F00F0
0F0000
0F8000
07C000
07E000
03F000
03F800
0FFC00
1E7F00
1C3F80
3C1FC0
3807E0
3803F0
3801F0
3800F8
3C0078
1E0078
1F0038
0F8038
0FC038
07F078
03F870
00FCF0
007FE0
003F80
001F80
0007C0
0003E0
0001E0
0001F0
0200F0
1E00F0
1E00F0
0F00F0
0F01E0
0FC3E0
07FFE0
03FFC0
01FF00
007C00
ENDCHAR

STARTCHAR dieresis
ENCODING 168
SWIDTH 273 0
DWIDTH 14 0
BBX 13 5 0 31
BITMAP
78F0
78F0
78F0
78F0
78F0
ENDCHAR

STARTCHAR copyright
ENCODING 169
SWIDTH 604 0
DWIDTH 30 0
BBX 33 38 -1 -1
BITMAP
0007F00000
003FFC0000
007FFF0000
01F81F8000
03E003C000
038001E000
070000F000
0E00007800
0E03E03800
1C0FF81C00
1C1FFC1C00
383C1E0E00
38780E0E00
30700E0E00
3070040600
3060000700
70E0000700
70E0000700
70E0000700
70E0000700
70E0000700
70E0000700
3060040700
3070070600
38700E0E00
38780E0E00
383C3C0E00
1C1FFC1C00
1C0FF81C00
0E03E03800
0F00007800
070000F000
03C001E000
01E003C000
00F81F8000
007FFF0000
003FFC0000
0007F00000
ENDCHAR

STARTCHAR ordfeminine
ENCODING 170
SWIDTH 303 0
DWIDTH 15 0
BBX 16 18 0 19
BITMAP
07E0
1FF8
1FF8
3C3C
381C
101C
001C
03FC
1FFC
3FFC
7C1C
701C
701C
703C
787C
3FFC
3FDC
0F00
ENDCHAR

STARTCHAR guillemotleft
ENCODING 171
SWIDTH 456 0
DWIDTH 23 0
BBX 20 22 1 2
BITMAP
00E0E0
01C1C0
01C1C0
038380
038780
078700
0F0F00
0F0E00
1E1E00
1E1C00
3C3C00
3C3C00
1E1C00
1E1E00
0F0E00
0F0F00
078700
038780
03C380
01C1C0
01C1C0
00E0E0
ENDCHAR

STARTCHAR logicalnot
ENCODING 172
SWIDTH 479 0
DWIDTH 24 0
BBX 23 15 0 10
BITMAP
3FFFF8
3FFFF8
3FFFF8
3FFFF8
000038
000038
000038
000038
000038
000038
000038
000038
000038
000038
000038
ENDCHAR

STARTCHAR hyphen
ENCODING 173
SWIDTH 273 0
DWIDTH 14 0
BBX 14 4 0 11
BITMAP
7FF0
7FF0
7FF0
7FF0
ENDCHAR

STARTCHAR registered
ENCODING 174
SWIDTH 604 0
DWIDTH 30 0
BBX 33 38 -2 -1
BITMAP
0007F00000
001FFE0000
007FFF0000
00FC0FC000
01F003E000
03C000E000
0780007000
0700007800
0E00003800
1C3FF01C00
1C3FF81C00
183FFC0E00
38381E0E00
38380E0600
30380E0600
30380E0700
70380E0700
70381C0700
703FFC0700
703FF80700
703FC00700
7038700700
3038780600
3038380600
38381C0600
38381C0E00
1C380E0E00
1C380E1C00
1E38071C00
0E00003800
0700007800
078000F000
03C001E000
01F003C000
00FC1F8000
007FFF0000
001FFE0000
0007F00000
ENDCHAR

STARTCHAR macron
ENCODING 175
SWIDTH 273 0
DWIDTH 14 0
BBX 16 4 -1 30
BITMAP
3FFC
3FFC
3FFC
3FFC
ENDCHAR

STARTCHAR degree
ENCODING 176
SWIDTH 328 0
DWIDTH 16 0
BBX 15 14 1 23
BITMAP
0380
0FE0
1FF0
1C70
3838
3018
3018
3018
3018
3838
1C70
1FF0
0FE0
0380
ENDCHAR

STARTCHAR plusminus
ENCODING 177
SWIDTH 479 0
DWIDTH 24 0
BBX 23 30 0 0
BITMAP
003800
003800
003800
003800
003800
003800
003800
003800
003800
003800
3FFFF8
3FFFF8
3FFFF8
3FFFF8
003800
003800
003800
003800
003800
003800
003800
003800
003800
003800
000000
000000
3FFFF8
3FFFF8
3FFFF8
3FFFF8
ENDCHAR

STARTCHAR twosuperior
ENCODING 178
SWIDTH 273 0
DWIDTH 14 0
BBX 16 18 -1 19
BITMAP
03E0
0FF8
1FF8
1C3C
381C
081C
001C
003C
0078
00F0
01E0
03C0
0780
0F00
1E00
1FFC
3FFC
3FFC
ENDCHAR

STARTCHAR threesuperior
ENCODING 179
SWIDTH 273 0
DWIDTH 14 0
BBX 16 19 -1 18
BITMAP
07C0
0FF0
1FF8
3C78
3838
0038
0078
01F0
01E0
03F0
0038
001C
001C
181C
381C
3C3C
1FF8
0FF0
07E0
ENDCHAR

STARTCHAR acute
ENCODING 180
SWIDTH 273 0
DWIDTH 14 0
BBX 10 7 3 29
BITMAP
0F80
0F00
1E00
1E00
3C00
3800
3800
ENDCHAR

STARTCHAR mu
ENCODING 181
SWIDTH 456 0
DWIDTH 23 0
BBX 20 36 1 -10
BITMAP
7801E0
7801E0
7801E0
7801E0
7801E0
7801E0
7801E0
7801E0
7801E0
7801E0
7801E0
7801E0
7801E0
7801E0
7801E0
7801E0
7801E0
7801E0
7801E0
7C01E0
7C03E0
7E07E0
7F0FE0
7FFFE0
7FFFE0
7BFDE0
78F000
780000
780000
780000
780000
780000
780000
780000
780000
780000
ENDCHAR

STARTCHAR paragraph
ENCODING 182
SWIDTH 440 0
DWIDTH 22 0
BBX 25 46 -1 -10
BITMAP
01FFFF00
07FFFF00
0FFFFF00
1FFFFF00
3FF87800
3FF87800
3FF87800
7FF87800
7FF87800
7FF87800
7FF87800
7FF87800
7FF87800
3FF87800
3FF87800
3FF87800
1FF87800
1FF87800
07F87800
03F87800
00787800
00787800
00787800
00787800
00787800
00787800
00787800
00787800
00787800
00787800
00787800
00787800
00787800
00787800
00787800
00787800
00787800
00787800
00787800
00787800
00787800
00787800
00787800
00787800
00787800
00787800
ENDCHAR

STARTCHAR periodcentered
ENCODING 183
SWIDTH 228 0
DWIDTH 11 0
BBX 8 5 2 15
BITMAP
3C
3C
3C
3C
3C
ENDCHAR

STARTCHAR cedilla
ENCODING 184
SWIDTH 273 0
DWIDTH 14 0
BBX 12 10 1 -10
BITMAP
0600
0E00
0F00
0F80
03C0
01C0
03C0
3FC0
3F80
3E00
ENDCHAR

STARTCHAR onesuperior
ENCODING 185
SWIDTH 273 0
DWIDTH 14 0
BBX 10 18 1 19
BITMAP
0380
0380
0780
1F80
3F80
3B80
3380
0380
0380
0380
0380
0380
0380
0380
0380
0380
0380
0380
ENDCHAR

STARTCHAR ordmasculine
ENCODING 186
SWIDTH 299 0
DWIDTH 15 0
BBX 16 18 0 19
BITMAP
07C0
0FF0
1FF0
3C78
3838
701C
701C
701C
701C
701C
701C
701C
701C
3838
3C78
1FF0
0FE0
07C0
ENDCHAR

STARTCHAR guillemotright
ENCODING 187
SWIDTH 456 0
DWIDTH 23 0
BBX 21 22 1 2
BITMAP
383800
1C3C00
1C1C00
0E1E00
0F0E00
070F00
078700
038780
03C3C0
03C3C0
01E1E0
01E1E0
01C3C0
03C3C0
038780
078700
070F00
0F0E00
0E1E00
1C1C00
1C1C00
383800
ENDCHAR

STARTCHAR onequarter
ENCODING 188
SWIDTH 684 0
DWIDTH 34 0
BBX 35 39 1 -2
BITMAP
0180003800
0380003800
0780007000
0F80007000
3F8000E000
3F8001E000
338001C000
2380038000
0380038000
0380070000
0380070000
03800E0000
03801E0000
03801C0000
0380380000
0380380000
0380700000
0380700000
0380E00000
0001E00E00
0001C00E00
0003801E00
0003803E00
0007007E00
0007007E00
000E00EE00
001E01EE00
001C01CE00
0038038E00
0038078E00
0070070E00
00700FFF80
00E00FFF80
01E00FFF80
01C0000E00
0380000E00
0380000E00
0700000E00
0700000000
ENDCHAR

STARTCHAR onehalf
ENCODING 189
SWIDTH 684 0
DWIDTH 34 0
BBX 35 38 0 -1
BITMAP
0180003800
0380007800
0780007000
0F8000E000
3F8000E000
3F8001C000
338003C000
2380038000
0380070000
0380070000
03800E0000
03801E0000
03801C0000
0380380000
0380380000
0380700000
0380700000
0380E00000
0381C00000
0001C07C00
000381FF00
000383FF00
0007038780
000E070380
000E010380
001C000380
001C000780
0038000F00
0078001E00
0070003C00
00E0007800
00E000F000
01C001E000
03C003C000
038007FF80
070007FF80
070007FF80
0E00000000
ENDCHAR

STARTCHAR threequarters
ENCODING 190
SWIDTH 684 0
DWIDTH 34 0
BBX 37 38 -1 -1
BITMAP
07C0000E00
0FF0000E00
1FF8001C00
3C78003C00
3838003800
0038007000
0078007000
01F000E000
01E000E000
03F001C000
0038038000
001C038000
001C070000
181C070000
381C0E0000
3C3C1C0000
1FF81C0000
0FF0380000
07C0380000
0000700380
0000E00780
0000E00780
0001C00F80
0001C01F80
0003803F80
0007803B80
0007007380
000E00E380
000E01E380
001C01C380
003C03FFE0
003803FFE0
007003FFE0
0070000380
00E0000380
01E0000380
01C0000380
0380000000
ENDCHAR

STARTCHAR questiondown
ENCODING 191
SWIDTH 501 0
DWIDTH 25 0
BBX 22 37 2 -11
BITMAP
007800
007800
007800
007800
007800
000000
000000
000000
000000
007800
007800
007800
007800
007800
00F000
00F000
01F000
03E000
07C000
0F8000
1F0000
1E0000
3E0000
3C0000
780000
780000
780078
780070
7800F0
7C00F0
3C01F0
3E01E0
1F07E0
1FFFC0
0FFF80
03FF00
00F800
ENDCHAR

STARTCHAR Agrave
ENCODING 192
SWIDTH 547 0
DWIDTH 27 0
BBX 31 46 -2 0
BITMAP
001F0000
001F0000
000F0000
00078000
00078000
0003C000
0001C000
00000000
00000000
00000000
0007C000
0007C000
0007C000
000FE000
000FE000
000EE000
001EF000
001EF000
001C7000
003C7800
003C7800
00387800
00783C00
00783C00
00703C00
00F01E00
00F01E00
00F01E00
01E00F00
01E00F00
01E00F00
01FFFF80
03FFFF80
03FFFF80
03FFFFC0
078003C0
078003C0
078003E0
0F0001E0
0F0001E0
0F0001F0
1E0000F0
1E0000F0
1E0000F8
3E000078
3C000078
ENDCHAR

STARTCHAR Aacute
ENCODING 193
SWIDTH 547 0
DWIDTH 27 0
BBX 31 46 -2 0
BITMAP
0000F800
0000F000
0001E000
0001E000
0003C000
00038000
00038000
00000000
00000000
00000000
0007C000
0007C000
0007C000
000FE000
000FE000
000EE000
001EF000
001EF000
001C7000
003C7800
003C7800
00387800
00783C00
00783C00
00703C00
00F01E00
00F01E00
00F01E00
01E00F00
01E00F00
01E00F00
01FFFF80
03FFFF80
03FFFF80
03FFFFC0
078003C0
078003C0
078003E0
0F0001E0
0F0001E0
0F0001F0
1E0000F0
1E0000F0
1E0000F8
3E000078
3C000078
ENDCHAR

STARTCHAR Acircumflex
ENCODING 194
SWIDTH 547 0
DWIDTH 27 0
BBX 31 46 -2 0
BITMAP
0003C000
0007C000
000FE000
000FF000
001E7000
003C7800
003C3C00
00000000
00000000
00000000
0007C000
0007C000
0007C000
000FE000
000FE000
000EE000
001EF000
001EF000
001C7000
003C7800
003C7800
00387800
00783C00
00783C00
00703C00
00F01E00
00F01E00
00F01E00
01E00F00
01E00F00
01E00F00
01FFFF80
03FFFF80
03FFFF80
03FFFFC0
078003C0
078003C0
078003E0
0F0001E0
0F0001E0
0F0001F0
1E0000F0
1E0000F0
1E0000F8
3E000078
3C000078
ENDCHAR

STARTCHAR Atilde
ENCODING 195
SWIDTH 547 0
DWIDTH 27 0
BBX 31 45 -2 0
BITMAP
001E0C00
003F9C00
003FFC00
0071F800
0070F800
00000000
00000000
00000000
00000000
0007C000
0007C000
0007C000
000FE000
000FE000
000EE000
001EF000
001EF000
001C7000
003C7800
003C7800
00387800
00783C00
00783C00
00703C00
00F01E00
00F01E00
00F01E00
01E00F00
01E00F00
01E00F00
01FFFF80
03FFFF80
03FFFF80
03FFFFC0
078003C0
078003C0
078003E0
0F0001E0
0F0001E0
0F0001F0
1E0000F0
1E0000F0
1E0000F8
3E000078
3C000078
ENDCHAR

STARTCHAR Adieresis
ENCODING 196
SWIDTH 547 0
DWIDTH 27 0
BBX 30 46 -1 0
BITMAP
0078F000
0078F000
0078F000
0078F000
0078F000
00000000
00000000
00000000
00000000
00000000
000F0000
000F8000
001F8000
001F8000
001FC000
001DC000
003DC000
0039E000
0039E000
0078E000
0078F000
0070F000
00F0F000
00F07800
00E07800
01E07800
01E03C00
01E03C00
03C03C00
03C03E00
03C01E00
03FFFE00
07FFFF00
07FFFF00
07FFFF00
0F000F80
0F000780
0F000780
1E0007C0
1E0003C0
1E0003C0
3C0003E0
3C0003E0
3C0001E0
3C0001F0
780001F0
ENDCHAR

STARTCHAR Aring
ENCODING 197
SWIDTH 547 0
DWIDTH 27 0
BBX 31 47 -2 0
BITMAP
00038000
0007C000
000C6000
00082000
00082000
000C2000
000C6000
0007C000
00038000
00000000
00000000
00078000
000FC000
000FC000
000FC000
001FE000
001EE000
001CE000
001CF000
003CF000
003C7000
00387800
00787800
00783800
00703C00
00F03C00
00F01E00
00E01E00
01E01E00
01E01F00
01E00F00
03C00F00
03FFFF80
03FFFF80
03FFFF80
07FFFFC0
078003C0
078003C0
0F0003E0
0F0001E0
0F0001E0
1E0001F0
1E0000F0
1E0000F0
3C0000F8
3C0000F8
3C000078
ENDCHAR

STARTCHAR AE
ENCODING 198
SWIDTH 820 0
DWIDTH 41 0
BBX 42 36 -2 0
BITMAP
0001FFFFFF00
0001FFFFFF00
0001FFFFFF00
0003FFFFFF00
0003C7800000
0007C7800000
000787800000
000787800000
000F07800000
000F07800000
000F07800000
001E07800000
001E07800000
003C07800000
003C07800000
003C07FFFE00
007807FFFE00
007807FFFE00
00F007FFFE00
00F007800000
00F007800000
01FFFF800000
01FFFF800000
03FFFF800000
03FFFF800000
03C007800000
078007800000
078007800000
078007800000
0F0007800000
0F0007800000
1E0007800000
1E0007FFFF00
1E0007FFFF00
3C0007FFFF00
3C0007FFFF00
ENDCHAR

STARTCHAR Ccedilla
ENCODING 199
SWIDTH 592 0
DWIDTH 30 0
BBX 28 48 1 -11
BITMAP
001FC000
007FF800
01FFFC00
03FFFE00
07F07F00
07C01F00
0F800F80
1F000780
1E0007C0
1E0003C0
3C0003C0
3C000300
3C000000
78000000
78000000
78000000
78000000
78000000
78000000
78000000
78000000
78000000
78000000
78000000
7C000000
3C0001C0
3C0001E0
3C0003C0
3E0003C0
1E0007C0
1F000780
0F800F80
0FC01F00
07F07F00
03FFFE00
01FFFC00
007FF000
001FC000
000E0000
000F0000
000FC000
0003C000
0001C000
0001C000
0003C000
007FC000
007F8000
007E0000
ENDCHAR

STARTCHAR Egrave
ENCODING 200
SWIDTH 547 0
DWIDTH 27 0
BBX 24 46 2 0
BITMAP
01F000
00F000
00F800
007800
003C00
001C00
001C00
000000
000000
000000
7FFFFC
7FFFFC
7FFFFC
7FFFFC
780000
780000
780000
780000
780000
780000
780000
780000
780000
780000
780000
7FFFF8
7FFFF8
7FFFF8
7FFFF8
780000
780000
780000
780000
780000
780000
780000
780000
780000
780000
780000
780000
780000
7FFFFE
7FFFFE
7FFFFE
7FFFFE
ENDCHAR

STARTCHAR Eacute
ENCODING 201
SWIDTH 547 0
DWIDTH 27 0
BBX 24 46 2 0
BITMAP
000F80
000F00
001F00
001E00
001C00
003C00
003800
000000
000000
000000
7FFFFC
7FFFFC
7FFFFC
7FFFFC
780000
780000
780000
780000
780000
780000
780000
780000
780000
780000
780000
7FFFF8
7FFFF8
7FFFF8
7FFFF8
780000
780000
780000
780000
780000
780000
780000
780000
780000
780000
780000
780000
780000
7FFFFE
7FFFFE
7FFFFE
7FFFFE
ENDCHAR

STARTCHAR Ecircumflex
ENCODING 202
SWIDTH 547 0
DWIDTH 27 0
BBX 24 46 2 0
BITMAP
003C00
007E00
007E00
00FF00
01E780
01E780
03C3C0
000000
000000
000000
7FFFFC
7FFFFC
7FFFFC
7FFFFC
780000
780000
780000
780000
780000
780000
780000
780000
780000
780000
780000
7FFFF8
7FFFF8
7FFFF8
7FFFF8
780000
780000
780000
780000
780000
780000
780000
780000
780000
780000
780000
780000
780000
7FFFFE
7FFFFE
7FFFFE
7FFFFE
ENDCHAR

STARTCHAR Edieresis
ENCODING 203
SWIDTH 547 0
DWIDTH 27 0
BBX 25 46 2 0
BITMAP
03C3C000
03C3C000
03C3C000
03C3C000
03C3C000
00000000
00000000
00000000
00000000
00000000
7FFFFE00
7FFFFE00
7FFFFE00
7FFFFE00
78000000
78000000
78000000
78000000
78000000
78000000
78000000
78000000
78000000
78000000
78000000
7FFFF800
7FFFF800
7FFFF800
7FFFF800
78000000
78000000
78000000
78000000
78000000
78000000
78000000
78000000
78000000
78000000
78000000
78000000
78000000
7FFFFE00
7FFFFE00
7FFFFE00
7FFFFE00
ENDCHAR

STARTCHAR Igrave
ENCODING 204
SWIDTH 228 0
DWIDTH 11 0
BBX 11 46 -1 0
BITMAP
3E00
1E00
1F00
0F00
0700
0780
0380
0000
0000
0000
0780
0780
0780
0780
0780
0780
0780
0780
0780
0780
0780
0780
0780
0780
0780
0780
0780
0780
0780
0780
0780
0780
0780
0780
0780
0780
0780
0780
0780
0780
0780
0780
0780
0780
0780
0780
ENDCHAR

STARTCHAR Iacute
ENCODING 205
SWIDTH 228 0
DWIDTH 11 0
BBX 11 46 2 0
BITMAP
0F80
0F00
1F00
1E00
1C00
3C00
3800
0000
0000
0000
3C00
3C00
3C00
3C00
3C00
3C00
3C00
3C00
3C00
3C00
3C00
3C00
3C00
3C00
3C00
3C00
3C00
3C00
3C00
3C00
3C00
3C00
3C00
3C00
3C00
3C00
3C00
3C00
3C00
3C00
3C00
3C00
3C00
3C00
3C00
3C00
ENDCHAR

STARTCHAR Icircumflex
ENCODING 206
SWIDTH 228 0
DWIDTH 11 0
BBX 16 46 -2 0
BITMAP
03C0
07E0
07E0
0FF0
1E78
1E78
3C3C
0000
0000
0000
03C0
03C0
03C0
03C0
03C0
03C0
03C0
03C0
03C0
03C0
03C0
03C0
03C0
03C0
03C0
03C0
03C0
03C0
03C0
03C0
03C0
03C0
03C0
03C0
03C0
03C0
03C0
03C0
03C0
03C0
03C0
03C0
03C0
03C0
03C0
03C0
ENDCHAR

STARTCHAR Idieresis
ENCODING 207
SWIDTH 228 0
DWIDTH 11 0
BBX 14 46 -1 0
BITMAP
7878
7878
7878
7878
7878
0000
0000
0000
0000
0000
0780
0780
0780
0780
0780
0780
0780
0780
0780
0780
0780
0780
0780
0780
0780
0780
0780
0780
0780
0780
0780
0780
0780
0780
0780
0780
0780
0780
0780
0780
0780
0780
0780
0780
0780
0780
ENDCHAR

STARTCHAR Gbreve
ENCODING 208
SWIDTH 638 0
DWIDTH 32 0
BBX 29 46 1 -1
BITMAP
00603000
00707000
0078F000
003FE000
001FC000
000F8000
00000000
00000000
000FE000
007FFC00
00FFFE00
01FFFF00
03F83F80
07E00FC0
0F8007C0
0F0003E0
1F0001E0
1E0001E0
3C0000E0
3C0000C0
3C000000
3C000000
78000000
78000000
78000000
78000000
78000000
7800FFF0
7800FFF0
7800FFF0
7800FFF0
780000F0
3C0000F0
3C0000F0
3C0000F0
3E0000F0
1E0000F0
1F0000F0
0F0000F0
0F8003F0
07E007F0
03F83FE0
01FFFFC0
00FFFF00
007FFE00
000FF000
ENDCHAR

STARTCHAR Ntilde
ENCODING 209
SWIDTH 592 0
DWIDTH 30 0
BBX 25 45 2 0
BITMAP
00F0E000
01FCE000
03FFE000
039FC000
03878000
00000000
00000000
00000000
00000000
78000F00
7C000F00
7C000F00
7E000F00
7F000F00
7F000F00
7F800F00
7F800F00
7FC00F00
7BC00F00
7BE00F00
79E00F00
79F00F00
78F00F00
78F80F00
78780F00
783C0F00
783E0F00
781E0F00
781F0F00
780F0F00
780F8F00
78078F00
7807CF00
7803CF00
7803EF00
7801EF00
7801FF00
7800FF00
7800FF00
78007F00
78003F00
78003F00
78001F00
78001F00
78000F00
ENDCHAR

STARTCHAR Ograve
ENCODING 210
SWIDTH 638 0
DWIDTH 32 0
BBX 31 47 1 -1
BITMAP
003E0000
001E0000
000F0000
000F0000
00078000
00038000
00038000
00000000
00000000
001FE000
007FF800
00FFFE00
03FFFF00
07F03F80
07C00F80
0F8007C0
0F0003E0
1E0001E0
1E0001F0
3C0000F0
3C0000F0
3C0000F0
3C0000F8
78000078
78000078
78000078
78000078
78000078
78000078
78000078
78000078
78000078
78000078
7C000078
3C0000F0
3C0000F0
3E0000F0
1E0001E0
1F0001E0
0F0003E0
0F8007C0
07C00F80
03F03F80
01FFFF00
00FFFE00
007FF800
000FE000
ENDCHAR

STARTCHAR Oacute
ENCODING 211
SWIDTH 638 0
DWIDTH 32 0
BBX 31 47 1 -1
BITMAP
0001F000
0001E000
0003C000
0003C000
00038000
00070000
00070000
00000000
00000000
001FE000
007FF800
00FFFE00
03FFFF00
07F03F80
07C00F80
0F8007C0
0F0003E0
1E0001E0
1E0001F0
3C0000F0
3C0000F0
3C0000F0
3C0000F8
78000078
78000078
78000078
78000078
78000078
78000078
78000078
78000078
78000078
78000078
7C000078
3C0000F0
3C0000F0
3E0000F0
1E0001E0
1F0001E0
0F0003E0
0F8007C0
07C00F80
03F03F80
01FFFF00
00FFFE00
007FF800
000FE000
ENDCHAR

STARTCHAR Ocircumflex
ENCODING 212
SWIDTH 638 0
DWIDTH 32 0
BBX 31 47 1 -1
BITMAP
00078000
000FC000
001FE000
001EE000
003CF000
00387800
00787800
00000000
00000000
001FE000
007FF800
00FFFE00
03FFFF00
07F03F80
07C00F80
0F8007C0
0F0003E0
1E0001E0
1E0001F0
3C0000F0
3C0000F0
3C0000F0
3C0000F8
78000078
78000078
78000078
78000078
78000078
78000078
78000078
78000078
78000078
78000078
7C000078
3C0000F0
3C0000F0
3E0000F0
1E0001E0
1F0001E0
0F0003E0
0F8007C0
07C00F80
03F03F80
01FFFF00
00FFFE00
007FF800
000FE000
ENDCHAR

STARTCHAR Otilde
ENCODING 213
SWIDTH 638 0
DWIDTH 32 0
BBX 31 46 1 -1
BITMAP
003E1C00
007F3C00
007FF800
0073F800
00E0F000
00000000
00000000
00000000
001FE000
007FF800
00FFFE00
03FFFF00
07F03F80
07C00F80
0F8007C0
0F0003E0
1E0001E0
1E0001F0
3C0000F0
3C0000F0
3C0000F0
3C0000F8
78000078
78000078
78000078
78000078
78000078
78000078
78000078
78000078
78000078
78000078
7C000078
3C0000F0
3C0000F0
3E0000F0
1E0001E0
1F0001E0
0F0003E0
0F8007C0
07C00F80
03F03F80
01FFFF00
00FFFE00
007FF800
000FE000
ENDCHAR

STARTCHAR Odieresis
ENCODING 214
SWIDTH 638 0
DWIDTH 32 0
BBX 31 47 1 -1
BITMAP
00787800
00787800
00787800
00787800
00787800
00000000
00000000
00000000
00000000
001FE000
007FF800
01FFFE00
03FFFF00
07F03F80
07C00F80
0F8007C0
0F0003E0
1E0001E0
1E0001F0
3C0000F0
3C0000F0
3C0000F0
3C000078
78000078
78000078
78000078
78000078
78000078
78000078
78000078
78000078
78000078
78000078
78000078
3C0000F0
3C0000F0
3C0000F0
1E0001E0
1E0001E0
0F0003E0
0F8007C0
07C00F80
03F03F80
01FFFF00
00FFFE00
007FF800
000FE000
ENDCHAR

STARTCHAR multiply
ENCODING 215
SWIDTH 479 0
DWIDTH 24 0
BBX 20 21 2 7
BITMAP
100080
3801C0
7C03E0
3E07C0
1F0F80
0F8F00
0F9F00
07FE00
03FC00
01F800
01F800
01F800
03FC00
07FE00
0F9F00
1F0F80
1E07C0
3C07C0
3C03C0
380180
100080
ENDCHAR

STARTCHAR Oslash
ENCODING 216
SWIDTH 638 0
DWIDTH 32 0
BBX 32 40 0 -2
BITMAP
00000008
000FF00C
003FFC1C
007FFE3C
01FFFFF8
01F81FF0
03E007E0
07C003E0
0F8001F0
0F0003F0
0F0007F0
1E000F78
1E000E78
1E001E78
1E003C7C
3C00383C
3C00703C
3C00F03C
3C00E03C
3C01C03C
3C03C03C
3C07803C
3C07003C
3C0E003C
3C1E003C
1E1C003C
1E380078
1E780078
1FF00078
0FE000F0
0FC000F0
07C001F0
07C003E0
07E007C0
0FF81F80
1FFFFF80
1C7FFE00
383FFC00
380FF000
10000000
ENDCHAR

STARTCHAR Ugrave
ENCODING 217
SWIDTH 592 0
DWIDTH 30 0
BBX 25 47 2 -1
BITMAP
00F00000
00F80000
00780000
003C0000
003C0000
001C0000
000E0000
00000000
00000000
00000000
78000F00
78000F00
78000F00
78000F00
78000F00
78000F00
78000F00
78000F00
78000F00
78000F00
78000F00
78000F00
78000F00
78000F00
78000F00
78000F00
78000F00
78000F00
78000F00
78000F00
78000F00
78000F00
78000F00
78000F00
78000F00
78000F00
78000F00
3C000F00
3C001E00
3C001E00
3E003E00
1F007C00
1FC1FC00
0FFFF800
07FFF000
03FFE000
00FF8000
ENDCHAR

STARTCHAR Uacute
ENCODING 218
SWIDTH 592 0
DWIDTH 30 0
BBX 25 47 2 -1
BITMAP
00078000
000F8000
000F0000
000E0000
001E0000
001C0000
003C0000
00000000
00000000
00000000
78000F00
78000F00
78000F00
78000F00
78000F00
78000F00
78000F00
78000F00
78000F00
78000F00
78000F00
78000F00
78000F00
78000F00
78000F00
78000F00
78000F00
78000F00
78000F00
78000F00
78000F00
78000F00
78000F00
78000F00
78000F00
78000F00
78000F00
3C000F00
3C001E00
3C001E00
3E003E00
1F007C00
1FC1FC00
0FFFF800
07FFF000
03FFE000
00FF8000
ENDCHAR

STARTCHAR Ucircumflex
ENCODING 219
SWIDTH 592 0
DWIDTH 30 0
BBX 25 47 2 -1
BITMAP
003C0000
003E0000
007F0000
00770000
00F78000
01E3C000
01E3C000
00000000
00000000
00000000
78000F00
78000F00
78000F00
78000F00
78000F00
78000F00
78000F00
78000F00
78000F00
78000F00
78000F00
78000F00
78000F00
78000F00
78000F00
78000F00
78000F00
78000F00
78000F00
78000F00
78000F00
78000F00
78000F00
78000F00
78000F00
78000F00
78000F00
3C000F00
3C001E00
3C001E00
3E003E00
1F007C00
1FC1FC00
0FFFF800
07FFF000
03FFE000
00FF8000
ENDCHAR

STARTCHAR Udieresis
ENCODING 220
SWIDTH 592 0
DWIDTH 30 0
BBX 25 47 2 -1
BITMAP
01E3C000
01E3C000
01E3C000
01E3C000
01E3C000
00000000
00000000
00000000
00000000
00000000
78000F00
78000F00
78000F00
78000F00
78000F00
78000F00
78000F00
78000F00
78000F00
78000F00
78000F00
78000F00
78000F00
78000F00
78000F00
78000F00
78000F00
78000F00
78000F00
78000F00
78000F00
78000F00
78000F00
78000F00
78000F00
78000F00
78000F00
3C001F00
3C001E00
3C001E00
3E003E00
1F007C00
1FC1FC00
0FFFF800
07FFF000
03FFE000
00FF8000
ENDCHAR

STARTCHAR Idotaccent
ENCODING 221
SWIDTH 228 0
DWIDTH 11 0
BBX 8 44 2 0
BITMAP
3C
3C
3C
3C
3C
00
00
00
3C
3C
3C
3C
3C
3C
3C
3C
3C
3C
3C
3C
3C
3C
3C
3C
3C
3C
3C
3C
3C
3C
3C
3C
3C
3C
3C
3C
3C
3C
3C
3C
3C
3C
3C
3C
ENDCHAR

STARTCHAR Scedilla
ENCODING 222
SWIDTH 547 0
DWIDTH 27 0
BBX 26 47 1 -10
BITMAP
007F8000
01FFE000
07FFF800
0FFFFC00
0FC1FC00
1F003E00
1E001E00
3C001F00
3C000F00
3C000F00
3C000F00
3C000000
3E000000
1F000000
1FC00000
0FF80000
0FFF0000
03FFE000
01FFF800
007FFC00
000FFE00
0000FE00
00003F00
00000F00
00000F80
18000780
78000780
78000780
78000780
3C000780
3E000F00
3E000F00
1F801F00
1FE0FE00
0FFFFC00
07FFF800
01FFF000
003F8000
001C0000
001E0000
001F0000
00078000
00038000
00078000
007F8000
00FF0000
00FC0000
ENDCHAR

STARTCHAR germandbls
ENCODING 223
SWIDTH 501 0
DWIDTH 25 0
BBX 23 38 2 -1
BITMAP
01F000
07FC00
0FFE00
1FFF00
1E0F00
3C0780
3C0780
380780
780780
780780
780700
780F00
780F00
780E00
781E00
781C00
783C00
783C00
783C00
783E00
781F00
781F80
780FC0
7807E0
7803F0
7800F8
780078
78007C
78003C
78003C
78003C
78E03C
78F078
78F8F8
787FF0
787FF0
783FE0
000F00
ENDCHAR

STARTCHAR agrave
ENCODING 224
SWIDTH 456 0
DWIDTH 23 0
BBX 22 37 0 -1
BITMAP
03E000
01F000
00F000
00F000
007800
003800
001C00
000000
000000
00FE00
03FF80
0FFFC0
0FFFE0
1F03E0
1E01F0
3C00F0
3C00F0
1800F0
0000F0
0000F0
000FF0
01FFF0
07FFF0
0FFFF0
1FF0F0
3F00F0
3C00F0
7800F0
7800F0
7800F0
7801F0
7803F0
3C07F0
3F1FF0
1FFE70
1FFC78
07F000
ENDCHAR

STARTCHAR aacute
ENCODING 225
SWIDTH 456 0
DWIDTH 23 0
BBX 22 37 0 -1
BITMAP
001F00
001E00
003C00
003C00
007800
007000
007000
000000
000000
00FE00
03FF80
0FFFC0
0FFFE0
1F03E0
1E01F0
3C00F0
3C00F0
1800F0
0000F0
0000F0
000FF0
01FFF0
07FFF0
0FFFF0
1FF0F0
3F00F0
3C00F0
7800F0
7800F0
7800F0
7801F0
7803F0
3C07F0
3F1FF0
1FFE70
1FFC78
07F000
ENDCHAR

STARTCHAR acircumflex
ENCODING 226
SWIDTH 456 0
DWIDTH 23 0
BBX 22 37 0 -1
BITMAP
007C00
00FC00
01FE00
01CF00
03CF00
078780
0787C0
000000
000000
00FE00
03FF80
0FFFC0
0FFFE0
1F03E0
1E01F0
3C00F0
3C00F0
1800F0
0000F0
0000F0
000FF0
01FFF0
07FFF0
0FFFF0
1FF0F0
3F00F0
3C00F0
7800F0
7800F0
7800F0
7801F0
7803F0
3C07F0
3F1FF0
1FFE70
1FFC78
07F000
ENDCHAR

STARTCHAR atilde
ENCODING 227
SWIDTH 456 0
DWIDTH 23 0
BBX 22 36 0 -1
BITMAP
03E1C0
07F1C0
07FF80
0E3F80
0E0F00
000000
000000
000000
00FE00
03FF80
0FFFC0
0FFFE0
1F03E0
1E01F0
3C00F0
3C00F0
1800F0
0000F0
0000F0
000FF0
01FFF0
07FFF0
0FFFF0
1FF0F0
3F00F0
3C00F0
7800F0
7800F0
7800F0
7801F0
7803F0
3C07F0
3F1FF0
1FFE70
1FFC78
07F000
ENDCHAR

STARTCHAR adieresis
ENCODING 228
SWIDTH 456 0
DWIDTH 23 0
BBX 22 37 0 -1
BITMAP
078780
078780
078780
078780
078780
000000
000000
000000
000000
00FC00
03FF80
0FFFC0
0FFFE0
1F03E0
1C01F0
3C00F0
3800F0
1800F0
0000F0
0000F0
000FF0
01FFF0
07FFF0
0FFEF0
1FF0F0
3F00F0
3C00F0
7800F0
7800F0
7801F0
7801F0
7803F0
3C07F0
3F1FF0
3FFE70
1FFC78
07F000
ENDCHAR

STARTCHAR aring
ENCODING 229
SWIDTH 456 0
DWIDTH 23 0
BBX 22 38 0 -1
BITMAP
003800
007C00
00C600
008200
008200
008200
00C600
007C00
003800
000000
007C00
03FF80
07FFC0
0FFFE0
1F01E0
1E00F0
3C00F0
3C00F0
1C00F0
0000F0
0000F0
000FF0
01FFF0
07FFF0
0FFFF0
1FF0F0
3F00F0
3C00F0
7C00F0
7800F0
7800F0
7801F0
7C01F0
3C03F0
3F1F70
1FFF70
0FFC78
07F800
ENDCHAR

STARTCHAR ae
ENCODING 230
SWIDTH 729 0
DWIDTH 36 0
BBX 36 28 0 -1
BITMAP
00FC01F000
03FF87FC00
0FFFDFFE00
0FFFDFFF00
1F03FE0F80
1C01F80780
3C01F803C0
3C00F003C0
1800F001C0
0000F001E0
0001E001E0
001FFFFFE0
03FFFFFFE0
0FFFFFFFE0
1FFCFFFFE0
3F80E00000
3C00E00000
3800F00000
7800F00100
7801F001E0
7801F003C0
7803F803C0
7C03FC07C0
3E0FBE0F80
3FFF1FFF00
1FFE1FFE00
0FF807FC00
03E001F000
ENDCHAR

STARTCHAR ccedilla
ENCODING 231
SWIDTH 410 0
DWIDTH 20 0
BBX 21 38 1 -11
BITMAP
007800
03FE00
07FF80
0FFF80
1F07C0
1E03C0
3C01E0
3C01E0
3C00E0
380000
780000
780000
780000
780000
780000
780000
780000
780000
7800F0
3800E0
3C00E0
3C01E0
1E01E0
1F03C0
0F8FC0
0FFF80
07FF00
01FE00
007000
00E000
00F000
00FC00
003C00
001C00
003C00
03FC00
03F800
03E000
ENDCHAR

STARTCHAR egrave
ENCODING 232
SWIDTH 456 0
DWIDTH 23 0
BBX 22 37 0 -1
BITMAP
03E000
01E000
00F000
00F000
007800
003800
001C00
000000
000000
007800
03FF00
07FF80
0FFFC0
1F83E0
1E01E0
3E00F0
3C00F0
3C0070
380078
780078
7FFFF8
7FFFF8
7FFFF8
7FFFF8
780000
780000
780000
380000
3C0078
3C00F0
3E00F0
1F01F0
1F83E0
0FFFC0
07FFC0
03FF00
007C00
ENDCHAR

STARTCHAR eacute
ENCODING 233
SWIDTH 456 0
DWIDTH 23 0
BBX 22 37 0 -1
BITMAP
001F00
001E00
003C00
003C00
003800
007000
007000
000000
000000
007800
03FF00
07FF80
0FFFC0
1F83E0
1E01E0
3E00F0
3C00F0
3C0070
380078
780078
7FFFF8
7FFFF8
7FFFF8
7FFFF8
780000
780000
780000
380000
3C0078
3C00F0
3E00F0
1F01F0
1F83E0
0FFFC0
07FFC0
03FF00
007C00
ENDCHAR

STARTCHAR ecircumflex
ENCODING 234
SWIDTH 456 0
DWIDTH 23 0
BBX 22 37 0 -1
BITMAP
007800
00FC00
01FE00
01EE00
03CF00
078780
078780
000000
000000
007800
03FF00
07FF80
0FFFC0
1F83E0
1E01E0
3E00F0
3C00F0
3C0070
380078
780078
7FFFF8
7FFFF8
7FFFF8
7FFFF8
780000
780000
780000
380000
3C0078
3C00F0
3E00F0
1F01F0
1F83E0
0FFFC0
07FFC0
03FF00
007C00
ENDCHAR

STARTCHAR edieresis
ENCODING 235
SWIDTH 456 0
DWIDTH 23 0
BBX 22 37 0 -1
BITMAP
078780
078780
078780
078780
078780
000000
000000
000000
000000
007800
03FF00
07FF80
0FFFC0
1F03E0
1E01E0
3C00F0
3C0070
380070
380078
780078
7FFFF8
7FFFF8
7FFFF8
7FFFF8
780000
780000
780000
380000
3C0078
3C0070
3E00F0
1F01F0
1F83E0
0FFFC0
07FFC0
03FF00
007C00
ENDCHAR

STARTCHAR igrave
ENCODING 236
SWIDTH 228 0
DWIDTH 11 0
BBX 11 36 -1 0
BITMAP
3E00
1E00
0F00
0F00
0780
0380
0380
0000
0000
0000
0780
0780
0780
0780
0780
0780
0780
0780
0780
0780
0780
0780
0780
0780
0780
0780
0780
0780
0780
0780
0780
0780
0780
0780
0780
0780
ENDCHAR

STARTCHAR iacute
ENCODING 237
SWIDTH 228 0
DWIDTH 11 0
BBX 11 36 2 0
BITMAP
0F80
0F00
1E00
1E00
1C00
3800
3800
0000
0000
0000
3C00
3C00
3C00
3C00
3C00
3C00
3C00
3C00
3C00
3C00
3C00
3C00
3C00
3C00
3C00
3C00
3C00
3C00
3C00
3C00
3C00
3C00
3C00
3C00
3C00
3C00
ENDCHAR

STARTCHAR icircumflex
ENCODING 238
SWIDTH 228 0
DWIDTH 11 0
BBX 16 36 -2 0
BITMAP
03C0
07E0
0FF0
0F70
1E78
3C3C
3C3C
0000
0000
0000
03C0
03C0
03C0
03C0
03C0
03C0
03C0
03C0
03C0
03C0
03C0
03C0
03C0
03C0
03C0
03C0
03C0
03C0
03C0
03C0
03C0
03C0
03C0
03C0
03C0
03C0
ENDCHAR

STARTCHAR idieresis
ENCODING 239
SWIDTH 228 0
DWIDTH 11 0
BBX 14 36 -1 0
BITMAP
7878
7878
7878
7878
7878
0000
0000
0000
0000
0000
0780
0780
0780
0780
0780
0780
0780
0780
0780
0780
0780
0780
0780
0780
0780
0780
0780
0780
0780
0780
0780
0780
0780
0780
0780
0780
ENDCHAR

STARTCHAR gbreve
ENCODING 240
SWIDTH 456 0
DWIDTH 23 0
BBX 22 47 0 -11
BITMAP
060380
070300
078700
03FF00
01FE00
00F800
000000
000000
000000
00F800
03FE70
07FF70
0FFFF0
1F07F0
1E03F0
3C01F0
3C00F0
3C00F0
3800F0
780070
780070
780070
780070
780070
780070
780070
3800F0
3C00F0
3C00F0
3C01F0
1E03F0
1F07F0
0FFF70
07FF70
03FE70
00F8F0
0000F0
0000F0
3000F0
3C00F0
3C01E0
3C01E0
1F03E0
1FFFC0
0FFF80
07FF00
00F800
ENDCHAR

STARTCHAR ntilde
ENCODING 241
SWIDTH 456 0
DWIDTH 23 0
BBX 20 35 1 0
BITMAP
07C380
0FE380
0FFF00
1E7F00
1C3E00
000000
000000
000000
007C00
79FF00
7BFF80
7FFFC0
7F07C0
7E03C0
7C01E0
7C01E0
7801E0
7801E0
7801E0
7801E0
7801E0
7801E0
7801E0
7801E0
7801E0
7801E0
7801E0
7801E0
7801E0
7801E0
7801E0
7801E0
7801E0
7801E0
7801E0
ENDCHAR

STARTCHAR ograve
ENCODING 242
SWIDTH 456 0
DWIDTH 23 0
BBX 22 37 0 -1
BITMAP
01E000
01F000
00F000
007000
007800
003800
001800
000000
000000
007C00
03FF00
07FF80
0FFFC0
1F03E0
1E01E0
3C01F0
3C00F0
3C00F0
380078
780078
780078
780078
780078
780078
780078
780078
780078
380070
3C00F0
3C00F0
3C00F0
1E01E0
1F03E0
0FFFC0
07FF80
03FF00
007800
ENDCHAR

STARTCHAR oacute
ENCODING 243
SWIDTH 456 0
DWIDTH 23 0
BBX 22 37 0 -1
BITMAP
001E00
001E00
003C00
003800
003800
007000
007000
000000
000000
007C00
03FF00
07FF80
0FFFC0
1F03E0
1E01E0
3C01F0
3C00F0
3C00F0
380078
780078
780078
780078
780078
780078
780078
780078
780078
380070
3C00F0
3C00F0
3C00F0
1E01E0
1F03E0
0FFFC0
07FF80
03FF00
007800
ENDCHAR

STARTCHAR ocircumflex
ENCODING 244
SWIDTH 456 0
DWIDTH 23 0
BBX 22 37 0 -1
BITMAP
007800
00FC00
01FE00
01CE00
03CF00
078780
078780
000000
000000
007C00
03FF00
07FF80
0FFFC0
1F03E0
1E01E0
3C01F0
3C00F0
3C00F0
380078
780078
780078
780078
780078
780078
780078
780078
780078
380070
3C00F0
3C00F0
3C00F0
1E01E0
1F03E0
0FFFC0
07FF80
03FF00
007800
ENDCHAR

STARTCHAR otilde
ENCODING 245
SWIDTH 456 0
DWIDTH 23 0
BBX 22 36 0 -1
BITMAP
03E1C0
07F380
07FF80
073F80
0E0F00
000000
000000
000000
007C00
03FF00
07FF80
0FFFC0
1F03E0
1E01E0
3C01F0
3C00F0
3C00F0
380078
780078
780078
780078
780078
780078
780078
780078
780078
380070
3C00F0
3C00F0
3C00F0
1E01E0
1F03E0
0FFFC0
07FF80
03FF00
007800
ENDCHAR

STARTCHAR odieresis
ENCODING 246
SWIDTH 456 0
DWIDTH 23 0
BBX 22 37 0 -1
BITMAP
078780
078780
078780
078780
078780
000000
000000
000000
000000
007800
03FF00
07FF80
0FFFC0
1F03E0
1E01E0
3C00F0
3C00F0
380070
380078
780078
780078
780078
780078
780078
780078
780078
780078
380070
380070
3C00F0
3C00F0
1E01E0
1F03E0
0FFFC0
07FF80
03FF00
007800
ENDCHAR

STARTCHAR divide
ENCODING 247
SWIDTH 479 0
DWIDTH 24 0
BBX 22 20 1 8
BITMAP
007800
007800
007800
007800
007800
000000
000000
000000
7FFFF8
7FFFF8
7FFFF8
7FFFF8
000000
000000
000000
007800
007800
007800
007800
007800
ENDCHAR

STARTCHAR oslash
ENCODING 248
SWIDTH 501 0
DWIDTH 25 0
BBX 22 29 2 -2
BITMAP
007830
03FF70
07FFF0
0FFFE0
1F07E0
1E01E0
1E03F0
3C03F0
3C07F0
380E78
780E78
781C78
781C78
783878
787078
787078
78E078
78E078
79C078
3F80F0
3F80F0
3F00F0
1E01E0
1F87E0
1FFFC0
1FFF80
3BFF00
307C00
100000
ENDCHAR

STARTCHAR ugrave
ENCODING 249
SWIDTH 456 0
DWIDTH 23 0
BBX 20 37 1 -1
BITMAP
07C000
03C000
01E000
01E000
00F000
007000
007800
000000
000000
000000
7801E0
7801E0
7801E0
7801E0
7801E0
7801E0
7801E0
7801E0
7801E0
7801E0
7801E0
7801E0
7801E0
7801E0
7801E0
7801E0
7801E0
7801E0
7801E0
7801E0
7C03E0
3C07E0
3E0EE0
3FFEE0
1FFCE0
0FF8E0
03E000
ENDCHAR

STARTCHAR uacute
ENCODING 250
SWIDTH 456 0
DWIDTH 23 0
BBX 20 37 1 -1
BITMAP
003E00
003C00
007800
007800
007000
00E000
00E000
000000
000000
000000
7801E0
7801E0
7801E0
7801E0
7801E0
7801E0
7801E0
7801E0
7801E0
7801E0
7801E0
7801E0
7801E0
7801E0
7801E0
7801E0
7801E0
7801E0
7801E0
7801E0
7C03E0
3C07E0
3E0EE0
3FFEE0
1FFCE0
0FF8E0
03E000
ENDCHAR

STARTCHAR ucircumflex
ENCODING 251
SWIDTH 456 0
DWIDTH 23 0
BBX 20 37 1 -1
BITMAP
00F000
01F800
03FC00
03DC00
079E00
0F0F00
0F0F00
000000
000000
000000
7801E0
7801E0
7801E0
7801E0
7801E0
7801E0
7801E0
7801E0
7801E0
7801E0
7801E0
7801E0
7801E0
7801E0
7801E0
7801E0
7801E0
7801E0
7801E0
7801E0
7C03E0
3C07E0
3E0EE0
3FFEE0
1FFCE0
0FF8E0
03E000
ENDCHAR

STARTCHAR udieresis
ENCODING 252
SWIDTH 456 0
DWIDTH 23 0
BBX 20 37 1 -1
BITMAP
0F0F00
0F0F00
0F0F00
0F0F00
0F0F00
000000
000000
000000
000000
000000
7801E0
7801E0
7801E0
7801E0
7801E0
7801E0
7801E0
7801E0
7801E0
7801E0
7801E0
7801E0
7801E0
7801E0
7801E0
7801E0
7801E0
7801E0
7801E0
7801E0
7C03E0
3C07E0
3E0EE0
3FFEE0
1FFCE0
0FF8E0
03E000
ENDCHAR

STARTCHAR dotlessi
ENCODING 253
SWIDTH 228 0
DWIDTH 11 0
BBX 6 26 3 0
BITMAP
78
78
78
78
78
78
78
78
78
78
78
78
78
78
78
78
78
78
78
78
78
78
78
78
78
78
ENDCHAR

STARTCHAR scedilla
ENCODING 254
SWIDTH 410 0
DWIDTH 20 0
BBX 20 37 0 -10
BITMAP
01F800
07FE00
0FFF00
1FFF80
1E0780
3C03C0
3803C0
3803C0
3C0000
3C0000
3F0000
1FE000
1FFC00
0FFF00
03FF80
007FC0
000FC0
0003E0
0001E0
7801E0
7801E0
3C01E0
3C03C0
3E07C0
1FFF80
0FFF00
07FE00
01F800
00E000
00F000
00F800
003C00
001C00
003C00
03FC00
03F800
03E000
ENDCHAR

STARTCHAR ydieresis
ENCODING 255
SWIDTH 410 0
DWIDTH 20 0
BBX 22 47 0 -11
BITMAP
078F00
078F00
078F00
078F00
078F00
000000
000000
000000
000000
000000
7800F0
7800F0
3C00E0
3C01E0
3C01E0
1C01C0
1E01C0
1E03C0
0E03C0
0F0380
0F0780
0F0780
070700
078700
078F00
038E00
03CE00
03DE00
01DE00
01DC00
01DC00
01FC00
00F800
00F800
00F800
007000
007000
007000
00F000
00E000
00E000
01E000
03C000
1FC000
1F8000
1F8000
1F0000
ENDCHAR
ENDFONT
